<?xml version="1.0" encoding="UTF-8" standalone="no"?>
<svg width="122px" height="35px" viewBox="0 0 122 35" version="1.1" xmlns="http://www.w3.org/2000/svg" xmlns:xlink="http://www.w3.org/1999/xlink" xmlns:sketch="http://www.bohemiancoding.com/sketch/ns">
    <!-- Generator: Sketch 3.0.4 (8053) - http://www.bohemiancoding.com/sketch -->
    <title>Untitled 2</title>
    <desc>Created with Sketch.</desc>
    <defs></defs>
    <g id="Page-1" stroke="none" stroke-width="1" fill="none" fill-rule="evenodd" sketch:type="MSPage">
        <g id="檄" sketch:type="MSLayerGroup" transform="translate(-531.000000, -348.000000)">
            <g id="Group" transform="translate(37.519700, 42.519500)">
                <g transform="translate(221.700000, 65.700000)"></g>
            </g>
            <g id="Group" transform="translate(531.000000, 348.000000)" fill="#B3B3B3" sketch:type="MSShapeGroup">
                <path d="M83.8,15.8 L83.8,15.9 L85,15.9 C85.1,15.9 85.2,15.9 85.3,15.8 L86.2,15.8 C86.3,15.8 86.5,15.7 86.5,15.9 L86.6,15.9 C86.7,15.9 86.8,15.9 86.7,16 L86.8,16 L87.4,16 L87.4,16.1 L87.8,16.1 L88.4,16.1 C88.5,16.1 88.5,16.1 88.7,16.2 C88.8,16.2 88.8,16.3 88.9,16.3 L89.1,16.3 L89.1,16.6 C89.3,16.7 89.3,16.7 89.2,16.7 C89.1,16.8 89.1,16.8 89.1,16.9 L89,17 L88.9,17.1 C88.7,17.1 88.6,17.3 88.4,17.2 L88.3,17.2 C88.1,17 87.9,17.1 87.7,17.1 L86.6,17.1 C86.5,17.1 86.4,17.1 86.3,17 L86.1,17 L85.5,17 C85.4,17 85.3,17 85.2,16.9 L85,16.9 L82.8,16.9 L81,16.9 C80.9,16.9 80.8,16.9 80.7,16.8 L80.5,16.8 L79.9,16.8 C79.8,16.8 79.7,16.8 79.6,16.7 L79.4,16.7 L74.8,16.7 L74.6,16.7 C74.3,16.8 74.3,16.8 73.9,16.8 C73.9,16.8 73.9,16.8 73.8,16.8 C73.5,16.9 73.2,16.8 72.8,16.9 C72.7,16.9 72.6,16.9 72.5,17 C72.4,17.1 72.3,17 72.3,17 L70.5,17 C70.2,17 70,17.1 69.8,17.2 C69.7,17.3 69.6,17.3 69.4,17.3 L68.9,17.3 C68.8,17.4 68.7,17.5 68.6,17.5 L68.1,17.5 L67.9,17.5 C67.7,17.4 67.5,17.4 67.3,17.5 L67.1,17.5 L66.6,17.5 L66.6,17.6 C66.6,17.6 66.6,17.6 66.5,17.6 L66,17.6 L65.7,17.6 C65.6,17.6 65.6,17.6 65.5,17.5 C65.4,17.5 65.3,17.4 65.3,17.4 C65.2,17.4 65.2,17.3 65.1,17.2 L65.1,17 C65.1,16.9 65.1,16.8 65.3,16.8 C65.4,16.8 65.5,16.7 65.6,16.6 L66.2,16.6 C66.3,16.5 66.4,16.4 66.5,16.4 C66.7,16.4 66.8,16.4 66.9,16.3 L67,16.3 L67.8,16.3 L67.7,16.4 L67.5,16.4 C67.5,16.4 67.5,16.4 67.4,16.5 L67.4,16.6 L67.8,16.6 L68.2,16.6 C68.3,16.6 68.4,16.5 68.5,16.5 C68.6,16.4 68.8,16.4 68.9,16.4 L69.1,16.4 C69,16.3 69,16.2 68.8,16.2 C68.8,16.2 68.7,16.2 68.6,16.1 L69,16.1 C69.2,15.9 69.5,16 69.7,16 C69.8,16 69.9,16 70,15.9 L70.1,15.9 C70.3,15.9 70.5,15.9 70.6,15.8 L70.9,15.8 L78.2,15.8 L80,15.8 C80.1,15.8 80.2,15.8 80.3,15.9 C80.3,16 80.4,15.9 80.5,15.9 L81.7,15.9 C81.8,15.9 82,15.8 82,16 L82.1,16 L82.7,16 L82.8,16 C83.3,15.7 83.5,15.8 83.8,15.8 L83.8,15.8 Z" id="Shape"></path>
                <path d="M47.2,17.6 L47.4,17.8 L47.2,17.8 C47.1,17.8 47.1,17.8 47.1,17.9 C47.1,18 47,18 47,18 C46.9,18.1 46.8,18.1 46.7,18.1 L46.6,18.2 C46.5,18.3 46.5,18.4 46.4,18.4 C46.3,18.4 46.3,18.5 46.2,18.5 C46.1,18.5 46,18.6 45.9,18.6 C45.8,18.6 45.7,18.7 45.6,18.7 C45.5,18.8 45.4,18.8 45.3,18.9 C45.2,19 45,19 44.8,19.1 L44.7,19.1 C44.6,19.1 44.5,19.1 44.5,19.2 L44.4,19.2 C44.4,19.2 44.3,19.2 44.3,19.3 L44.2,19.3 L44,19.3 C43.9,19.5 43.8,19.4 43.7,19.4 C43.7,19.4 43.7,19.4 43.7,19.5 L43.4,19.5 C43.4,19.7 43.2,19.5 43.2,19.7 L43,19.7 C42.9,19.7 42.8,19.6 42.8,19.8 C42.8,19.8 42.8,19.8 42.7,19.8 L42.5,19.8 L42.4,19.9 L42.1,19.9 C42.1,20 42.1,20 42,20 C41.9,20 41.9,20 41.9,20.1 L41.4,20.1 L41.4,20.2 C41.3,20.2 41.2,20.2 41,20.3 L40.5,20.3 C40.4,20.3 40.3,20.3 40.3,20.4 L40.2,20.4 C40.2,20.4 40.1,20.4 40.1,20.5 L40,20.5 L39.7,20.5 C39.7,20.6 39.7,20.6 39.6,20.6 C39.5,20.6 39.5,20.7 39.5,20.7 L39.2,20.7 C39.1,20.7 39,20.6 38.9,20.8 L38.7,20.8 L38.6,20.9 C38.5,20.9 38.4,21 38.3,21.1 C38.3,21.1 38.2,21.1 38.2,21.2 C38.2,21.2 38.1,21.2 38.1,21.3 L38,21.3 L37,21.3 C36.8,21.3 36.8,21.4 36.7,21.5 L36.5,21.5 C36.4,21.5 36.3,21.4 36.3,21.6 L36.2,21.6 L35.8,21.6 C35.7,21.8 35.6,21.7 35.5,21.7 C35.5,21.8 35.5,21.8 35.4,21.8 C35.3,21.8 35.3,21.9 35.3,21.9 L34.6,21.9 C34.5,21.9 34.5,21.9 34.5,22 L33.7,22 L33.4,21.7 L33.4,21.3 C33.5,21.2 33.5,21.2 33.6,21.1 C33.7,21 33.8,21.1 33.8,21 L33.9,21 L34.8,21 C34.8,21 34.8,20.9 34.9,20.9 C35,20.9 35.1,20.9 35.2,20.8 C35.3,20.7 35.3,20.7 35.4,20.7 L35.7,20.7 C35.8,20.7 35.9,20.6 35.9,20.6 C36,20.5 36.1,20.5 36.2,20.5 L36.4,20.5 C36.5,20.5 36.5,20.4 36.5,20.4 L36.3,20.2 C36.2,20.2 36.1,20.2 36,20.1 L35.8,20.1 C35.7,20.1 35.7,20.1 35.6,20 C35.5,19.9 35.4,20 35.4,20 C35.3,19.9 35.2,19.8 35.1,19.8 C35,19.8 34.9,19.7 35,19.6 L35,19.2 L35,19.1 C35.2,19.1 35.2,19 35.4,19 C35.5,18.9 35.6,18.9 35.7,18.8 L35.8,18.8 C35.9,18.8 36,18.8 36.1,18.7 L36.2,18.7 C36,18.3 36,18.1 35.7,17.9 C35.6,17.8 35.5,17.8 35.5,17.9 C35.4,18 35.3,18 35.2,18 L34.5,18 L34.1,17.6 C34.1,17.5 34.4,17.4 34.3,17.2 L34.8,17.2 C35,17.2 35,17.2 35,17 C34.9,16.9 34.9,16.9 34.8,16.8 C34.7,16.7 34.7,16.7 34.7,16.6 C34.7,16.6 34.7,16.5 34.6,16.5 C34.5,16.4 34.4,16.3 34.4,16.2 C34.5,16.1 34.2,16 34.3,15.9 C34.2,15.8 34.2,15.7 34.2,15.6 C34.2,15.5 34.1,15.5 34.1,15.4 C34,15.3 34,15.2 33.9,15.1 L33.9,15 C33.9,14.9 33.9,14.8 33.8,14.8 L33.8,14.5 C33.7,14.5 33.7,14.4 33.7,14.4 C33.6,14.4 33.7,14.3 33.6,14.3 L33.4,14.1 L33.4,13.8 C33.4,13.7 33.4,13.7 33.5,13.7 L33.5,13.6 L33.5,13.4 L33.4,13.3 L33.4,13 L33.4,12.9 C33.2,12.8 33.3,12.6 33.3,12.5 L33.3,11 C33.3,10.9 33.3,10.9 33.2,10.8 C33.1,10.7 33.1,10.6 33.2,10.5 C33.2,10.4 33.3,10.4 33.3,10.3 C33.3,10.2 33.3,10 33.4,10 L33.4,10 C33.3,9.8 33.5,9.8 33.5,9.6 C33.7,9.5 33.6,9.3 33.6,9.2 C33.7,9.1 33.8,9 33.8,8.9 C33.8,8.9 33.8,8.9 33.9,8.8 C34,8.7 34.1,8.7 34,8.6 L34.3,8.3 L34.4,8.2 C34.4,8.1 34.5,8.1 34.5,8 C34.6,7.9 34.8,7.7 34.9,7.6 C35,7.5 35.2,7.4 35.3,7.4 C35.4,7.3 35.5,7.3 35.7,7.3 L36.1,7.3 L36.2,7.2 C36.3,7.2 36.3,7.4 36.4,7.3 C36.5,7.3 36.5,7.4 36.6,7.4 L36.6,7.5 C36.6,7.5 36.7,7.5 36.8,7.6 L36.6,7.6 C36.6,7.6 36.5,7.6 36.5,7.7 L36.4,7.7 L35.7,7.7 L35.4,8 C35.4,8 35.4,8.1 35.3,8.1 C35.3,8.1 35.2,8.1 35.2,8.2 C35.2,8.3 35.2,8.3 35.1,8.3 C35.1,8.3 35.1,8.3 35.1,8.4 C35.2,8.5 35,8.5 35,8.6 C34.9,8.6 34.9,8.7 34.9,8.8 L34.7,8.8 C34.6,8.9 34.7,9 34.6,9 C34.6,9.1 34.6,9.1 34.7,9.2 C34.8,9.1 34.9,9 35.1,9.1 C35.2,9 35.2,8.9 35.3,8.9 L35.6,8.9 C35.7,8.9 35.8,8.9 35.8,8.8 L35.9,8.8 L36.4,8.8 C36.5,8.8 36.5,8.8 36.6,8.7 L36.7,8.7 L37.3,8.7 C37.4,8.7 37.5,8.7 37.6,8.6 L37.7,8.6 L38.9,8.6 C39,8.6 39.1,8.6 39.1,8.5 L39.2,8.5 L40.7,8.5 L40.8,8.5 C40.9,8.6 41,8.6 41.1,8.6 C41.2,8.6 41.4,8.6 41.4,8.7 L41.5,8.7 L41.9,8.7 C42,8.7 42.1,8.7 42.1,8.8 L42.2,8.8 C42.3,8.8 42.3,8.8 42.4,8.9 L42.5,8.9 C42.6,8.9 42.7,9 42.8,9 C42.9,9 43,9.2 43.1,9.1 L43.2,9.2 C43.3,9.3 43.3,9.3 43.4,9.3 L43.5,9.4 C43.6,9.4 43.6,9.5 43.7,9.5 L43.7,9.5 C43.7,9.7 43.9,9.8 44,10 C44,10.1 44,10.2 44.1,10.3 C44.2,10.4 44.1,10.5 44,10.6 L44,10.7 L44,11 C43.9,11.1 43.8,11.2 43.8,11.4 C43.7,11.5 43.7,11.7 43.6,11.8 L43.6,12.1 L43.4,12.3 C43.4,12.4 43.4,12.5 43.3,12.6 C43.2,12.7 43.2,12.8 43.1,12.9 C43,12.9 43,13 43,13.1 C43,13.2 42.9,13.2 42.9,13.2 C42.8,13.3 42.7,13.4 42.7,13.5 L42.6,13.6 C42.5,13.7 42.4,13.8 42.4,13.9 L42.3,14 C42.3,14 42.2,14.1 42.2,14.2 C42.1,14.4 42,14.5 41.8,14.6 C41.7,14.6 41.7,14.7 41.7,14.7 C41.6,14.8 41.6,14.8 41.5,14.8 C41.4,14.8 41.3,14.9 41.3,15 C41.3,15.1 41.3,15.1 41.2,15.2 L41.3,15.3 L41.3,15.9 C41.2,16 41.1,16.1 41.1,16.2 C41,16.3 41,16.4 40.9,16.4 C40.8,16.4 40.7,16.5 40.6,16.5 C40.4,16.6 40.2,16.7 40,16.8 L39.7,16.8 L39.5,16.8 L39.2,17.1 C39.1,17.2 39,17.4 39,17.6 L39,17.9 L39,17.9 L39.8,17.9 L39.8,18 L40.3,18 L40.3,18.1 L40.4,18.1 L40.6,18.1 C40.6,18.2 40.7,18.2 40.7,18.2 C40.7,18.2 40.7,18.3 40.8,18.3 L40.9,18.3 C40.9,18.4 41.1,18.4 41,18.5 C41,18.6 41,18.6 41.1,18.6 C41,18.7 40.9,18.8 41,19 C40.9,19.1 40.9,19.1 40.8,19.2 L40.8,19.4 L41.4,19.4 C41.5,19.3 41.7,19.3 41.7,19.2 L42,19.2 L42.1,19.2 C42.2,19.1 42.3,19.1 42.4,19.1 C42.5,19.1 42.7,19.1 42.7,19 L43,19 C43.1,19 43.2,19 43.2,18.9 L43.3,18.9 C43.4,18.9 43.5,18.9 43.5,18.8 L43.6,18.8 C43.7,18.8 43.9,18.8 44,18.7 L44.1,18.7 C44.2,18.7 44.3,18.7 44.4,18.6 L44.5,18.6 C44.6,18.6 44.7,18.6 44.7,18.5 L44.8,18.5 L44.9,18.5 C45,18.5 45.1,18.4 45.2,18.4 L45.5,18.4 C45.6,18.3 45.7,18.3 45.8,18.2 L45.9,18.2 C46,18.2 46.1,18.3 46.2,18.2 C46.3,18.1 46.4,18.2 46.5,18.1 L46.7,18.1 C46.9,18.1 47.1,18 47.2,18 C47.3,18 47.3,17.9 47.4,17.9 C47.5,17.9 47.5,17.9 47.5,17.8 L47.6,17.7 C47,17.7 47.1,17.7 47.2,17.6 L47.2,17.6 Z M36.8,9.6 L36.8,9.7 L35.9,9.7 L35.9,9.8 L35.2,9.8 C35.3,9.9 35.3,10.1 35.4,10.2 C35.5,10.3 35.5,10.5 35.6,10.6 C35.7,10.6 35.7,10.7 35.8,10.8 L35.8,11.1 L35.8,11.2 C35.9,11.3 35.8,11.4 35.9,11.4 C36,11.5 36,11.6 36,11.7 L36,11.8 C36.1,11.9 36.1,12 36.1,12.1 C36.2,12.2 36.1,12.3 36.1,12.4 L36.1,12.4 C36,12.5 36,12.5 35.9,12.6 C35.9,12.5 35.8,12.4 35.8,12.4 C35.7,12.3 35.7,12.2 35.6,12.1 C35.6,12.1 35.6,12.1 35.6,12 C35.6,11.9 35.6,11.8 35.5,11.8 C35.4,11.7 35.5,11.6 35.4,11.6 C35.3,11.5 35.3,11.4 35.2,11.3 C35.1,11.2 35.2,11.1 35.1,11 C34.9,10.8 34.6,10.5 34.4,10.3 L34.3,10.2 C34.1,10.2 34.1,10.1 34,10 L33.7,9.7 L33.7,9.5 L33.6,9.4 L33.5,9.3 L33.5,9.6 C33.3,9.6 33.4,9.8 33.4,9.8 L33.3,9.8 L33.3,10.4 C33.3,10.5 33.4,10.6 33.2,10.6 C33.2,10.6 33.2,10.6 33.2,10.7 L33.2,12.4 L33.2,12.5 C33.3,12.6 33.3,12.6 33.3,12.7 C33.3,12.8 33.3,12.9 33.4,13 C33.5,13.1 33.5,13.2 33.6,13.3 L34.4,13.3 C34.5,13.3 34.5,13.2 34.5,13.2 L34.7,13.2 L34.8,13.2 C34.8,13.1 34.8,13.1 34.9,13.1 L35.2,13.1 L35.2,13.1 C35.2,13.1 35.2,13.1 35.2,13 C35.3,13 35.4,13 35.5,13.1 C35.5,13.2 35.8,13.2 35.8,13.1 C35.9,13 36,13 36,12.9 C36.1,12.8 36.1,12.8 36.2,12.9 C36.3,13 36.3,13 36.4,13.1 L36.8,13.1 L37,13.1 C37,13 37.1,13 37.1,13 C37.2,12.9 37.2,12.8 37.2,12.7 L37.2,11.8 C37.2,11.7 37.2,11.6 37.3,11.6 C37.4,11.5 37.4,11.4 37.3,11.4 C37.2,11.3 37.2,11.2 37.1,11.1 C37.2,11 37,11 37,10.8 C37,10.7 37,10.6 36.9,10.5 C37,10.4 37.1,10.3 37.2,10.2 L37.4,10.2 C37.5,10.2 37.6,10.3 37.6,10.4 C37.5,10.5 37.7,10.6 37.7,10.7 C37.7,10.8 37.8,10.9 37.9,11 L37.9,11.3 C38,11.4 38,11.5 38,11.6 L38.2,11.8 C38.2,11.9 38.4,12 38.3,12.1 C38.4,12.1 38.4,12.3 38.4,12.4 C38.5,12.5 38.6,12.5 38.6,12.7 C38.7,12.7 38.8,12.8 38.8,12.9 C38.9,12.9 38.9,13 39,13 C39.2,13 39.3,13.2 39.5,13.1 L39.6,13.1 C39.7,13.2 39.9,13.2 40,13.3 C40.1,13.4 40.2,13.5 40.3,13.7 C40.4,13.7 40.3,13.9 40.4,13.9 C40.5,14 40.4,14.1 40.5,14.2 L40.6,14.1 C40.6,14.1 40.6,14 40.7,14 C40.8,14 40.8,14 40.9,13.9 L41.1,13.7 L41.1,13.6 L41.2,13.6 C41.3,13.5 41.1,13.3 41.3,13.3 C41.3,13.2 41.3,13.1 41.4,13.1 C41.3,13 41.5,12.9 41.5,12.8 C41.5,12.7 41.6,12.7 41.7,12.6 L41.7,12.4 L41.7,12.3 C41.9,12.3 41.8,12.2 41.8,12.1 L41.8,11.9 L41.9,11.9 C41.9,11.8 42,11.7 42.1,11.6 C42.2,11.5 42.2,11.4 42.3,11.3 L42.3,10.8 C42.3,10.7 42.3,10.6 42.2,10.5 L42,10.3 C41.9,10.2 41.8,10.3 41.8,10.2 C41.6,10.2 41.5,10 41.3,10.1 L41.2,10.1 C41.1,10 41,10 40.9,10 C40.8,10 40.7,10 40.6,9.9 L40.5,9.9 L40.3,9.9 C40.1,9.9 39.8,10 39.6,9.8 L39.5,9.8 L39.2,9.8 L39.1,9.8 C39,9.7 38.9,9.7 38.8,9.7 C38.7,9.8 38.7,9.8 38.3,9.8 L38.3,9.9 C37.7,9.6 37.3,9.6 36.8,9.6 L36.8,9.6 Z M34.3,15.7 C34.3,15.8 34.4,15.8 34.4,15.8 C34.4,15.9 34.4,16 34.5,16 C34.5,16.1 34.6,16.1 34.6,16.1 C34.6,16.2 34.7,16.3 34.8,16.4 C34.8,16.4 34.8,16.4 34.8,16.5 C34.8,16.6 34.9,16.7 35,16.8 L35.1,16.9 C35.3,16.9 35.5,17 35.7,16.8 L35.8,16.8 L36.1,16.8 C36.2,16.8 36.3,16.8 36.3,16.7 C36.4,16.6 36.4,16.6 36.5,16.6 L36.8,16.6 L37.1,16.6 L37.3,16.4 C37.3,16.2 37.4,16 37.2,15.9 C37.2,15.9 37.2,15.9 37.2,15.8 C37.2,15.6 37.1,15.5 37,15.4 C37,15.3 37,15.2 36.9,15.2 C36.8,15.2 36.8,15.1 36.8,15 L36.8,14.8 C36.7,14.8 36.7,14.7 36.7,14.7 C36.7,14.6 36.7,14.6 36.6,14.6 L36.6,14.2 L36.5,14.2 L36.5,13.9 L35.1,13.9 L35,13.9 C34.9,14 34.8,14 34.6,14 L34.5,14 C34.4,14.1 34.4,14.1 34.3,14.1 L33.8,14.1 C33.8,14.2 33.7,14.2 33.7,14.3 C33.7,14.4 33.7,14.5 33.8,14.7 C33.9,14.8 34,15 33.9,15.2 C34.1,15.3 34.1,15.5 34.2,15.6 C34.4,15.6 34.3,15.7 34.3,15.7 L34.3,15.7 Z M39.4,14.4 L39.4,14.3 L39.4,14.1 C39.3,14.1 39.3,14 39.2,14 C39.2,13.9 39.1,13.9 39.1,13.8 L38.6,13.8 L38.6,13.9 C38.5,14 38.5,14.1 38.5,14.2 L38.5,15.7 C38.5,15.8 38.5,15.8 38.6,16 L38.6,16 C38.7,16 38.7,15.9 38.8,15.9 C38.9,15.9 38.9,15.8 38.9,15.8 C38.9,15.7 39,15.7 39.1,15.6 C39.2,15.6 39.3,15.5 39.3,15.5 C39.4,15.5 39.4,15.4 39.5,15.3 C39.6,15.2 39.7,15.2 39.7,15.1 L39.7,15 C39.7,14.9 39.7,14.9 39.6,14.8 L39.5,14.6 C39.5,14.5 39.4,14.5 39.4,14.4 L39.4,14.4 Z M36.4,19.2 C36.3,19.3 36.3,19.3 36.2,19.4 L35.9,19.4 L35.9,19.5 C35.8,19.6 35.6,19.4 35.6,19.6 C35.6,19.7 35.5,19.7 35.6,19.9 C35.7,19.9 35.8,19.8 35.8,20 L35.9,20 L36,20 C36,20.1 36.1,20.1 36.1,20.1 C36.1,20.2 36.2,20.2 36.2,20.2 C36.2,20.3 36.4,20.2 36.3,20.3 L36.3,20.3 L36.7,20.3 C36.8,20.2 36.9,20.2 37,20.2 C37.1,20.2 37.2,20.2 37.2,20.1 L37.2,19.2 C37.2,19.1 37.2,19.1 37,19 C36.8,19.2 36.6,19.2 36.4,19.2 L36.4,19.2 Z M38,20 C38.1,20 38.1,20 38.1,20.1 C38.2,20.2 38.2,20.2 38.3,20.1 C38.4,20 38.4,19.9 38.5,19.9 C38.6,19.8 38.6,19.7 38.8,19.7 C38.9,19.6 39,19.6 39.1,19.5 C39.1,19.4 39.2,19.4 39.2,19.4 L39.4,19.4 L39.1,19.1 L38.4,19.1 C38.2,19.1 38.2,19.1 38.2,19.3 L38.2,19.6 C38.1,19.7 38.1,19.7 38.1,19.8 C38,19.8 38,19.9 38,20 L38,20 Z M37.1,13.7 C37,13.8 37,13.9 37,13.9 C37.1,14.1 37.2,14.4 37.3,14.6 L37.5,14.4 L37.5,13.7 L37.1,13.7 L37.1,13.7 Z M36,17.9 L36.5,17.9 C36.6,17.9 36.6,17.9 36.7,17.7 L36.7,17.6 C36.7,17.5 36.6,17.5 36.6,17.5 L36.5,17.5 C36.4,17.5 36.3,17.5 36.3,17.6 C36.3,17.7 36.3,17.7 36.2,17.7 C36,17.8 36,17.8 36,17.9 L36,17.9 Z M38.3,12.8 L38.5,12.8 C38.5,12.7 38.5,12.7 38.6,12.7 C38.5,12.7 38.4,12.6 38.4,12.6 C38.3,12.6 38.3,12.7 38.3,12.8 L38.3,12.8 Z M59.2,13.8 C59,13.8 59.1,13.7 59,13.6 L59,13.6 C58.8,13.6 58.7,13.4 58.6,13.5 C58.5,13.5 58.3,13.5 58.3,13.4 C58.2,13.4 58.1,13.3 58.1,13.3 L57.8,13.3 C57.7,13.3 57.6,13.3 57.5,13.2 L57.4,13.2 L57.3,13.2 C57.2,13.1 57.1,13.1 57,13.1 L56.6,13.1 L56.5,13.1 C56.4,13 56.3,13 56.3,13 L54.7,13 C54.6,12.9 54.6,12.9 54.4,13 L54.3,13 L53.9,13 L53.8,13 C53.7,12.9 53.7,12.9 53.6,12.9 L53.1,12.9 L53.1,12.9 C53.1,12.9 53.1,12.9 53.1,13 L51.2,13 C51.2,13.1 51.2,13.1 51.1,13.1 L50.1,13.1 C50,13.1 50,13.2 50,13.2 C49.9,13.2 49.9,13.2 49.8,13.3 C49.8,13.3 49.7,13.3 49.6,13.4 L49.6,13.2 C49.7,13.1 49.8,13.1 49.9,13.1 L50.2,13.1 C50.3,13 50.3,13 50.4,12.9 C50.6,13 51.4,12.6 51.6,12.6 C51.8,12.5 52,12.5 52.1,12.3 C52.3,12.1 52.5,11.9 52.8,11.7 C52.9,11.6 52.9,11.4 53,11.3 L53,11.1 C52.8,10.9 52.6,10.7 52.4,10.5 L52.3,10.4 C52.1,10.4 52,10.2 51.9,10.2 C51.6,10.1 51.4,10.3 51.2,10.1 L51.1,10.1 L50.6,10.1 C50.4,10.1 50.4,10.1 50.2,10.2 C50,10.1 50,10.1 49.8,10.1 C49.6,10.1 49.4,10 49.3,10.2 C49.3,10.2 49.3,10.2 49.2,10.2 C49,10.2 48.9,10.3 48.8,10.3 C48.7,10.1 48.5,10.2 48.3,10.2 C48.2,10.4 48,10.3 47.9,10.3 C47.8,10.3 47.8,10.3 47.7,10.4 C47.6,10.5 47.5,10.5 47.3,10.6 L46.9,10.6 L46.6,10.6 L46.6,10.2 L47.1,10.2 L47.1,10 L47.3,10 C47.3,9.8 47.3,9.8 47.1,9.6 L46.8,9.6 C46.7,9.7 46.6,9.7 46.5,9.8 C46.3,9.9 46.2,10 45.9,10 L45.7,10.2 C45.5,10.2 45.3,10.1 45.2,10.3 C45,10.2 45,10.5 44.8,10.4 C44.7,10.5 44.6,10.6 44.5,10.7 L44.5,11.1 C44.6,11.2 44.6,11.2 44.7,11.3 C44.8,11.5 45,11.4 45.1,11.6 C45.3,11.6 45.4,11.7 45.6,11.5 L45.7,11.5 C45.9,11.5 46.2,11.4 46.4,11.6 L46.5,11.6 L47.3,11.6 L47.4,11.6 C47.5,11.5 47.6,11.5 47.7,11.5 L49,11.5 C49.1,11.5 49.2,11.5 49.3,11.4 C49.4,11.3 49.6,11.3 49.7,11.4 C49.8,11.5 50,11.5 50.1,11.5 L51.2,11.5 L51.2,11.8 C51.2,11.8 51.2,11.9 51.1,11.9 C51,12 50.9,12.1 50.8,12.2 L50.8,12.2 L50.6,12.2 L50.5,12.3 L50.3,12.3 L50.3,12.3 C50.2,12.5 50,12.6 49.9,12.7 C49.8,12.7 49.2,13 49.2,13.1 C49.1,13.2 49,13.1 48.9,13.2 L48.9,13.2 L48.8,13.3 L48.7,13.3 C48.7,13.4 48.6,13.4 48.6,13.4 L48.5,13.5 C48.3,13.7 48.3,13.7 48.1,13.7 C48,13.8 48,13.8 47.9,13.8 C47.8,13.8 47.8,13.8 47.7,13.9 L47.6,13.9 L47.3,13.9 L47.2,13.9 C47.1,14 47,14 47,14 L46.8,14 C46.7,14.1 46.6,14.1 46.5,14.1 L46.4,14.1 C46.3,14.2 46.2,14.2 46.1,14.2 L45.8,14.2 C45.7,14.3 45.6,14.3 45.5,14.3 C45.4,14.3 45.4,14.3 45.3,14.4 C45.1,14.5 45,14.6 44.8,14.6 C44.7,14.6 44.6,14.6 44.5,14.7 L44.4,14.7 C44.3,14.7 44.2,14.8 44.1,14.9 C44.1,15 44,15.1 43.9,15.1 L43.6,15.1 L43.5,15.1 C43.4,15 43.2,15 43.1,15 C43,15 42.9,15 42.9,15.1 C42.8,15.2 42.6,15.3 42.4,15.2 C42.3,15.2 42.3,15.1 42.1,15.1 C42,15.1 42,15.2 41.8,15.2 C41.7,15.2 41.7,15.2 41.6,15.3 L41.5,15.3 L41.3,15.3 L41,15.6 L41,16 C41.1,16.1 41.2,16.2 41.3,16.3 L41.7,16.3 L41.8,16.3 C41.9,16.2 42,16.2 42.1,16.2 L42.5,16.2 L42.6,16.2 C42.7,16.1 42.8,16.1 42.8,16.1 C42.9,16 43,16 43.1,16 C43.1,16 43.2,16 43.2,15.9 C43.2,15.9 43.3,15.9 43.3,15.8 C43.5,15.8 43.7,15.9 43.9,15.7 L44.2,15.7 C44.3,15.7 44.3,15.7 44.4,15.6 C44.6,15.5 44.7,15.4 44.9,15.4 L45.1,15.4 L45.2,15.4 C45.3,15.3 45.3,15.3 45.4,15.3 L45.5,15.3 C45.6,15.2 45.7,15.2 45.8,15.2 C45.9,15.2 46,15.2 46.1,15.1 L46.2,15.1 L46.3,15.1 C46.4,15 46.5,15 46.6,15 L47,15 C47.1,15 47.2,15 47.3,14.9 L47.4,14.9 L47.5,14.9 C47.6,14.8 47.7,14.8 47.8,14.8 C47.9,14.8 48.1,14.9 48.2,14.7 L48.3,14.7 L48.6,14.7 L48.7,14.7 C48.8,14.6 48.9,14.6 48.9,14.6 L49.1,14.6 C49.2,14.5 49.3,14.5 49.4,14.5 L50.2,14.5 L50.3,14.5 C50.4,14.4 50.5,14.4 50.7,14.4 C50.8,14.4 50.9,14.4 51,14.3 L51.1,14.3 C51.2,14.4 51.3,14.4 51.4,14.4 L51.9,14.4 C52,14.4 52.1,14.4 52.2,14.3 L52.3,14.3 L54.3,14.3 L54.4,14.3 C54.5,14.4 54.6,14.4 54.6,14.4 L55.9,14.4 L56,14.4 C56.1,14.5 56.2,14.5 56.3,14.5 L56.6,14.5 C56.7,14.7 56.9,14.6 57,14.6 L57.1,14.6 C57.2,14.7 57.3,14.6 57.3,14.7 C57.4,14.8 57.5,14.7 57.6,14.8 L57.5,14.9 C57.5,15 57.5,15.1 57.4,15 L57.1,15.3 C57.1,15.4 57,15.5 56.9,15.6 C56.8,15.7 56.9,15.8 56.7,15.8 C56.5,16 56.4,16.1 56.2,16.3 C56.2,16.3 56.2,16.3 56.2,16.4 C56.2,16.5 56.2,16.5 56.1,16.5 C56,16.5 56,16.6 56,16.7 L56,16.8 C55.9,16.9 55.9,16.9 55.8,17 C55.7,17.1 55.7,17.2 55.6,17.2 C55.4,17.2 55.4,17.4 55.2,17.5 C55.1,17.6 55,17.7 54.9,17.7 L54.8,17.8 C54.8,17.9 54.8,17.9 54.7,18 C54.5,18.1 54.4,18.3 54.2,18.4 C54.1,18.4 54.1,18.5 54,18.6 C53.9,18.6 53.9,18.6 53.8,18.7 C53.7,18.8 53.7,18.9 53.6,18.8 C53.5,18.8 53.5,18.9 53.4,18.9 C53.3,19 53.1,19 53,19.2 C52.9,19.3 52.8,19.4 52.7,19.5 C52.5,19.5 52.5,19.7 52.4,19.7 C52.3,19.7 52.2,19.7 52.1,19.8 C52,19.9 51.8,20 51.6,19.9 L51.3,19.9 C51.3,19.7 51.3,19.7 51.2,19.7 L51.2,19.4 C51.1,19.4 51.1,19.3 51.1,19.2 L51.1,19.1 C51,19.1 51,19 51,19 L51,18.9 C50.9,18.9 50.9,18.8 50.9,18.7 L50.9,18.6 C50.7,18.5 50.8,18.4 50.8,18.3 L50.7,18.2 C50.7,18.1 50.7,18 50.6,18.1 C50.6,18 50.5,18 50.5,18 L50.5,17.6 L50.4,17.6 L50.4,17.3 L50.4,17.2 C50.3,17.2 50.3,17.1 50.3,17 L50.3,16.9 C50.2,16.8 50.2,16.8 50.2,16.7 L50.2,16.5 C50.1,16.4 50.1,16.3 50,16.3 L49.6,16.3 C49.5,16.3 49.5,16.4 49.4,16.4 C49.3,16.4 49.3,16.5 49.2,16.6 C49.2,16.8 49.1,17 49.3,17.1 L49.3,17.2 L49.3,17.5 L49.6,17.8 C49.7,18 49.5,18.2 49.7,18.3 L49.7,18.4 L49.7,18.6 C49.7,18.8 49.6,19 49.8,19.1 L49.8,19.2 L49.8,19.4 L49.8,19.4 C49.9,19.5 49.9,19.6 50,19.6 C50.1,19.7 50,19.8 50.1,19.8 C50.2,19.9 50.2,20 50.2,20.1 C50.2,20.1 50.2,20.1 50.2,20.2 C50.3,20.2 50.3,20.3 50.3,20.4 L50.3,20.5 C50.4,20.6 50.4,20.7 50.4,20.7 C50.5,20.8 50.4,20.9 50.5,21 C50.6,21.1 50.6,21.3 50.6,21.4 L50.6,21.5 C50.7,21.6 50.7,21.6 50.7,21.7 L50.7,21.8 C50.8,21.9 50.8,21.9 50.8,22 L50.8,22.1 C50.9,22.2 50.9,22.3 50.9,22.3 L50.9,22.7 C50.9,22.8 50.9,22.9 51,23 L51,23.1 L51,24.3 L51,24.4 C50.9,24.5 50.9,24.5 50.9,24.6 C50.9,24.9 51,25.2 50.8,25.5 C50.8,25.7 50.7,25.8 50.6,25.8 C50.5,25.9 50.4,26.1 50.2,26 L50.2,26 C50.2,26.1 50.1,26.1 50.1,26.1 L50,26.1 C49.9,26.2 49.9,26.3 49.7,26.3 C49.7,26.3 49.7,26.4 49.6,26.4 L49.3,26.4 L49.3,26.5 L48.8,26.5 C48.7,26.5 48.6,26.5 48.6,26.4 L48.3,26.7 C48.2,26.7 48.1,26.8 48,26.7 C47.9,26.6 47.9,26.6 47.8,26.6 L46.4,26.6 C46.3,26.6 46.1,26.6 46,26.5 L45.9,26.5 C45.8,26.5 45.8,26.5 45.7,26.4 L45.6,26.4 C45.5,26.4 45.4,26.4 45.3,26.3 L45.2,26.3 C45.1,26.3 45,26.3 44.9,26.2 L44.8,26.2 L44.7,26.2 C44.6,26.1 44.5,26.1 44.5,26.1 L44.3,26.1 C44.2,26 44.1,26 44,26 L43.9,26 C43.8,25.9 43.7,25.9 43.5,25.9 L43.4,25.9 C43.3,25.8 43.2,25.9 43.1,25.7 C42.9,25.7 42.8,25.5 42.6,25.6 L42.4,25.6 C42.3,25.5 42.2,25.4 42.1,25.3 L41.5,25.3 C41.4,25.1 41.1,25.3 41,25.1 C40.9,25.3 40.7,25.2 40.6,25.4 C40.6,25.5 40.7,25.6 40.5,25.7 L40.5,26 L40.9,26.4 L41.1,26.4 C41.2,26.5 41.2,26.5 41.3,26.5 C41.4,26.5 41.4,26.5 41.4,26.6 C41.4,26.7 41.5,26.7 41.5,26.7 L41.6,26.7 C41.7,26.8 41.8,26.8 42,26.8 L42.1,26.8 C42.2,26.9 42.2,26.9 42.3,26.9 L42.4,26.9 C42.5,27 42.5,27 42.6,27 L42.7,27 C42.8,27.1 42.8,27.1 42.9,27.1 L43.2,27.1 L43.3,27.1 C43.4,27.2 43.5,27.2 43.6,27.2 L43.7,27.2 C43.8,27.3 43.8,27.3 43.9,27.3 L44.2,27.3 L44.3,27.3 C44.4,27.4 44.4,27.4 44.5,27.4 L44.6,27.4 C44.7,27.5 44.7,27.5 44.8,27.5 L44.9,27.5 C45.1,27.5 45.3,27.4 45.4,27.6 L45.5,27.6 L45.7,27.6 L45.7,27.7 L46.4,27.7 L46.4,27.8 L48.4,27.8 L48.5,27.8 C48.6,27.7 48.7,27.7 48.7,27.7 L49.1,27.7 L49.2,27.7 C49.3,27.6 49.4,27.6 49.5,27.6 L49.6,27.6 C49.7,27.5 49.7,27.5 49.8,27.5 L50,27.5 C50.1,27.4 50.3,27.4 50.4,27.3 L50.5,27.2 C50.6,27.2 50.7,27.1 50.7,27.1 L51,26.8 L51.1,26.7 C51.1,26.6 51.2,26.6 51.2,26.5 L51.3,26.4 C51.3,26.3 51.4,26.2 51.5,26.1 C51.6,26 51.7,25.9 51.7,25.7 C51.7,25.6 51.7,25.4 51.8,25.3 L51.8,25.1 L51.8,24.2 L51.9,24.2 L51.9,23.8 L51.9,23.7 C51.8,23.6 51.8,23.5 51.8,23.4 L51.8,22.8 C51.8,22.7 51.8,22.6 51.7,22.5 L51.7,22.4 L51.7,21.8 L51.6,21.7 L51.6,21.5 C51.6,21.5 51.6,21.4 51.5,21.4 C51.5,21.4 51.5,21.4 51.5,21.3 C51.5,21.2 51.5,21.2 51.4,21.2 C51.4,21.2 51.4,21.2 51.4,21.1 C51.6,21.1 51.5,20.9 51.5,20.9 L51.9,20.9 L52,20.9 C52.1,20.8 52.1,20.7 52.3,20.7 L52.3,20.7 C52.3,20.6 52.4,20.6 52.4,20.6 C52.5,20.6 52.5,20.5 52.5,20.5 C52.6,20.5 52.7,20.5 52.7,20.4 C52.8,20.4 52.8,20.2 52.9,20.3 L53,20.3 C53,20.2 53.2,20.3 53.1,20.1 L53.3,20.1 L53.3,20.1 C53.4,20 53.4,19.9 53.5,19.9 C53.6,19.8 53.7,19.8 53.8,19.7 C53.9,19.7 53.9,19.6 54,19.5 C54.1,19.5 54.1,19.4 54.2,19.4 C54.3,19.4 54.2,19.3 54.3,19.2 L54.4,19.2 C54.6,19.1 54.6,19 54.7,18.9 C54.8,18.8 54.9,18.7 55,18.6 C55.1,18.6 55.1,18.6 55.2,18.5 C55.5,18.2 55.7,18 56,17.7 L56.1,17.6 C56.2,17.6 56.3,17.5 56.3,17.5 C56.4,17.5 56.5,17.4 56.5,17.3 C56.6,17.2 56.6,17.2 56.7,17.1 L56.9,16.9 L57.1,16.7 C57,16.5 57.2,16.6 57.3,16.5 L57.3,16.4 L57.3,16.3 C57.4,16.3 57.4,16.2 57.5,16.2 L57.9,15.8 L57.9,15.6 C58.1,15.5 58.1,15.3 58.1,15.1 L58.1,14.8 C59.3,13.9 59.2,13.8 59.2,13.8 L59.2,13.8 Z M47.8,9.5 C47.9,9.6 47.9,9.6 48,9.6 L48.3,9.6 L48.4,9.6 L48.4,9.4 L48.7,9.4 L48.8,9.3 L49,9.3 L49.1,9.2 L49.2,9.1 L49.4,9.1 L49.6,9.1 L49.7,9 L49.9,9 C49.9,8.9 50,8.9 50.1,8.9 C50.2,8.9 50.2,8.9 50.4,8.8 C50.5,8.7 50.5,8.6 50.7,8.7 C50.8,8.7 50.7,8.6 50.8,8.6 L51,8.6 C51.1,8.5 51.2,8.5 51.3,8.5 L51.3,8.4 C51.5,8.3 51.5,8.1 51.8,8.1 C51.9,8 51.9,8 52.1,8 C52.1,8 52.1,8 52.1,7.9 C52.2,7.8 52.3,7.7 52.5,7.6 L52.5,7.1 L52.5,7 C52.4,7 52.4,6.9 52.4,6.9 L52.4,6.8 C52.2,6.8 52.2,6.5 52,6.5 L52,6.5 C51.9,6.3 51.8,6.2 51.6,6.2 C51.6,6.1 51.5,6.1 51.4,6.1 L51.2,6.1 C51.2,6 51.2,5.9 51.1,6 C51,6 51,6 50.9,5.9 C50.8,5.8 50.6,6 50.5,5.8 L50.1,5.8 L50,5.8 C50,5.6 49.8,5.7 49.8,5.7 L49.6,5.7 L49.5,5.6 L48.7,5.6 L48.7,5.5 L48.3,5.5 L48.3,5.4 L47.9,5.4 L47.9,5.3 L47.6,5.3 L47.4,5.3 L47.3,5.2 C47.2,5.2 47.3,5.1 47.2,5.1 L47,5.1 L46.9,5.1 C46.9,5 46.8,5 46.8,5 L46.3,5 L45.9,5 C45.7,5 45.7,5.1 45.5,5.1 C45.4,5.1 45.3,5.3 45.4,5.4 C45.5,5.5 45.5,5.6 45.5,5.7 L45.5,5.9 C45.5,6 45.6,6.1 45.6,6.1 C45.8,6.1 45.9,6.3 46.1,6.2 C46.1,6.2 46.2,6.2 46.2,6.3 C46.2,6.4 46.3,6.4 46.4,6.4 L46.6,6.4 C46.7,6.6 46.9,6.5 47,6.5 L47.1,6.5 C47.2,6.6 47.3,6.6 47.4,6.6 L47.6,6.6 C47.7,6.7 47.8,6.7 48,6.7 C48.2,6.7 48.5,6.6 48.7,6.8 L48.8,6.8 L48.9,6.8 C49,6.9 49.1,6.9 49.3,6.9 C49.4,6.9 49.6,6.9 49.7,7 L49.8,7 C49.9,7 50.1,7 50.2,7.1 L50.3,7.1 C50.4,7.1 50.5,7.1 50.7,7.2 C50.8,7.3 51,7.3 51,7.4 L51,7.7 C50.8,7.7 50.8,7.7 50.7,7.8 C50.6,7.9 50.5,8.1 50.3,8.1 C50.1,8.2 49.9,8.3 49.8,8.5 L49.6,8.7 L49.2,8.7 C49,8.9 48.9,9 48.7,9.2 L48.7,9.6 L48.4,9.6 C48.3,9.5 48.1,9.5 47.9,9.3 C47.8,9.4 47.8,9.4 47.7,9.4 L47.9,9.6 C47.9,9.7 47.8,9.7 47.8,9.8 C47.7,9.5 47.8,9.5 47.8,9.5 L47.8,9.5 Z" id="Shape"></path>
                <path d="M112.1,33.1 L112,33.2 C112,33.3 111.9,33.4 111.9,33.5 L111.9,34.3 L111.5,34.7 L110.9,34.7 C110.7,34.6 110.7,34.3 110.6,34.2 L110.6,34 L110.6,33.4 C110.6,33.3 110.6,33.2 110.5,33.1 L110.5,32.9 C110.5,32.8 110.6,32.7 110.5,32.6 L110.5,32.6 L110.5,32.5 C110.6,32.4 110.5,32.2 110.6,32.1 L110.6,32.1 C110.7,32.2 110.7,32.3 110.8,32.2 C110.9,32.1 111,32.1 111,31.9 L111,31.1 C111,31 111,30.9 111.1,30.9 C111.2,30.8 111.1,30.8 111.2,30.7 C111.2,30.1 111.2,29.5 111.3,28.9 C111.3,28.8 111.3,28.7 111.4,28.6 C111.5,28.5 111.5,28.3 111.4,28.2 C111.3,28.1 111.3,28 111.3,27.9 C111.3,27.2 111.3,26.5 111.4,25.8 C111.4,25.7 111.4,25.5 111.3,25.4 L111.3,25.2 C111.3,24.8 111.4,21.8 111.4,21.4 L111.4,21.2 C111.3,21.1 111.3,21 111.3,20.8 L111.3,20.5 L111.3,20.1 L111.3,20.1 C111.2,20 111.2,19.9 111.2,19.9 C111.2,19.8 111,19.7 111,19.6 L110.3,19.6 C110.2,19.6 110,19.6 110,19.5 L109.9,19.5 L108.9,19.5 C108.8,19.5 108.8,19.5 108.7,19.4 C108.6,19.3 108.6,19.3 108.5,19.3 L108.4,19.3 C108.3,19.1 108.1,19.2 108,19.2 C107.9,19.2 107.8,19.2 107.8,19.1 L107.7,19.1 C107.6,19.1 107.5,19.1 107.5,19 L107.4,19 L107.2,19 C107,19 106.8,18.9 106.6,18.8 C106.5,18.8 106.5,18.7 106.4,18.7 C106.4,18.7 106.4,18.7 106.3,18.7 L105.8,18.7 L105.8,19.7 L105.8,19.9 C105.8,19.9 105.7,19.9 105.7,20 L105.7,20.1 L105.7,20.3 L105.6,20.4 L105.5,20.5 L105.5,20.7 L105.5,20.8 C105.4,20.9 105.4,21 105.3,21 C105.1,21 105.2,21.1 105.2,21.2 C105.2,21.3 105,21.2 105.1,21.4 C104.9,21.5 104.7,21.8 104.5,21.9 C104.4,21.9 104.4,22.1 104.3,22.1 C104.2,22.1 104.2,22.2 104.1,22.3 C104,22.4 104,22.5 103.8,22.5 L103.7,22.6 C103.6,22.7 103.6,22.8 103.5,22.7 C103.5,22.7 103.4,22.7 103.4,22.8 C103.3,22.9 103.3,23 103.1,23 C103,23 103,23.2 102.8,23.1 C102.6,23.2 102.4,23.2 102.3,23.4 L102,23.4 L102,23.5 C102,23.5 102,23.6 101.9,23.6 C101.8,23.6 101.7,23.8 101.5,23.7 C101.4,23.9 101.2,23.8 101,23.8 C100.9,23.9 100.8,23.9 100.8,24 C100.8,24 100.8,24 100.7,24 C100.5,24 100.3,24.1 100.1,24.2 L100,24.2 L99.6,24.2 C99.5,24.2 99.4,24.2 99.3,24.3 C99.2,24.2 99.1,24.1 99,24.2 C98.8,24.2 98.7,24.1 98.5,24 C98.3,23.9 98.2,23.6 98.1,23.4 C98.1,23.3 97.9,23.2 98,23.1 L98,22.7 L98,22.3 L98,22.2 C98.1,22.1 98.1,22.1 98.1,22 C98.1,21.9 98.2,21.8 98.2,21.7 L98.2,21.4 C98.4,21.3 98.3,21.2 98.3,21 L98.3,20.9 C98.5,20.8 98.4,20.6 98.4,20.5 C98.4,20.5 98.4,20.4 98.5,20.4 C98.6,20.4 98.6,20.3 98.6,20.2 L98.6,20.1 C98.7,20 98.7,19.9 98.7,19.7 L98.7,19.6 C98.9,19.5 98.8,19.3 98.8,19.2 C98.8,19.2 98.8,19.2 98.8,19.1 C99,19 98.9,18.7 98.9,18.5 C98.9,18.4 98.9,18.3 99,18.2 L99,17.9 L99,17.8 C99.1,17.7 99.1,17.7 99.1,17.6 L99.1,17.5 C99.3,17.4 99.2,17.2 99.2,17.1 L98.4,17.1 L98.4,17.2 L98.1,17.2 C98,17.2 97.9,17.1 97.8,17.1 C97.7,17.1 97.6,17 97.6,17 C97.5,17 97.5,16.8 97.3,16.8 L97.3,16.5 C97.4,16.4 97.5,16.3 97.6,16.2 L97.9,16.2 L98.3,15.8 L98.4,15.9 L98.6,15.9 L98.6,16.1 L99.4,16.1 L99.5,16 L99.5,15.6 C99.4,15.5 99.3,15.4 99.3,15.4 L99.3,15.1 C99.4,15 99.5,15 99.5,14.9 C99.6,14.8 99.5,14.6 99.6,14.5 L99.6,14.4 L99.6,13.9 C99.6,13.8 99.6,13.7 99.7,13.7 L99.7,12.6 L99.4,12.6 L99.1,12.6 L99,12.6 C98.9,12.8 98.7,12.7 98.6,12.7 L97.7,12.7 C97.6,12.7 97.4,12.6 97.3,12.8 L96.9,12.8 L96.7,12.6 L96.7,12.1 C96.7,12 96.8,11.9 96.8,11.9 C96.9,11.9 97,11.8 97,11.8 C97.2,11.8 97.4,11.6 97.6,11.7 C97.7,11.7 97.7,11.7 97.8,11.6 C97.8,11.5 97.9,11.5 98,11.5 L98.5,11.5 C98.6,11.5 98.7,11.5 98.8,11.4 L98.9,11.4 L99.4,11.4 C99.5,11.4 99.6,11.4 99.6,11.3 L99.8,11.3 C99.9,11.3 100.1,11.3 100.2,11.2 L100.3,11.2 L100.6,11.2 C100.8,11 100.9,10.9 101.1,10.7 L101.7,10.7 C101.8,10.8 101.8,10.9 101.9,10.9 L103.4,10.9 C103.5,10.9 103.7,10.9 103.8,11 L104,11 C104.2,11 104.2,11.2 104.4,11.1 C104.5,11.2 104.6,11.3 104.6,11.4 C104.6,11.5 104.8,11.7 104.7,11.8 C104.6,11.9 104.6,12 104.5,12.1 C104.3,12.3 104.1,12.4 104,12.6 C103.9,12.6 103.9,12.7 103.8,12.7 C103.7,12.7 103.6,12.8 103.5,12.9 L103.3,12.9 C103.2,13 103.1,13.1 103,13.2 C102.9,13.3 102.8,13.2 102.7,13.3 C102.6,13.4 102.6,13.5 102.5,13.5 C102.4,13.5 102.3,13.7 102.2,13.6 C102.1,13.7 101.9,13.7 101.8,13.7 C101.8,13.7 101.7,13.7 101.7,13.6 C101.6,13.6 101.7,13.5 101.7,13.5 C101.8,13.3 101.8,13.3 102,13.2 C102.1,13.1 102.3,13.1 102.4,12.9 L102.5,12.8 C102.6,12.8 102.6,12.7 102.7,12.7 C102.8,12.6 102.9,12.4 103.1,12.5 L103.2,12.4 C103.3,12.3 103.3,12.3 103.4,12.3 L103.4,12.3 C103.4,12.1 103.6,12.1 103.5,11.9 L103,11.9 C103,11.9 103,11.9 102.9,11.9 C102.8,12.1 102.6,12 102.5,12 L101.9,12 C101.8,12 101.6,12 101.5,12.1 C101.5,12.2 101.3,12.1 101.2,12.1 C101.1,12.1 101,12.1 100.9,12.2 L100.6,12.2 C100.4,12.2 100.3,12.3 100.3,12.5 L100.3,13.3 C100.3,13.4 100.3,13.5 100.2,13.5 C100.2,13.5 100.2,13.6 100.1,13.7 L100.1,14.5 C100.1,14.6 100.1,14.8 100,14.8 L100,14.9 L100,15.5 L100.4,15.5 L100.6,15.5 C100.8,15.4 100.9,15.3 101.1,15.3 C101.2,15.3 101.3,15.1 101.4,15.2 C101.5,15.1 101.6,15.1 101.7,15 C101.8,14.9 101.9,14.9 102,14.8 C102.1,14.7 102.2,14.7 102.3,14.7 C102.4,14.6 102.5,14.7 102.5,14.6 L102.6,14.6 L103,14.6 C103.1,14.5 103.3,14.4 103.4,14.2 C103.5,14.1 103.5,14 103.6,13.9 C103.7,13.8 103.7,13.7 103.7,13.6 C103.7,13.5 103.8,13.4 103.8,13.4 C103.9,13.3 103.9,13.1 104.1,13 C104.2,12.9 104.2,12.8 104.3,12.7 C104.3,12.5 104.5,12.4 104.5,12.2 L104.7,12 L104.7,11.9 C104.7,11.7 104.8,11.5 104.9,11.3 L105,11.2 C105,11.1 105,11 105.1,10.9 C105.2,10.8 105.2,10.7 105.3,10.6 L105.3,10.5 L105.3,9.3 C105.3,9.2 105.2,9.2 105.2,9.1 C105.1,8.9 105,8.8 104.9,8.7 L104.3,8.7 C104.2,8.7 104.1,8.7 104.1,8.6 C104.1,8.6 104,8.6 103.9,8.5 L103.2,8.5 C103.1,8.5 102.9,8.5 102.8,8.4 L102.7,8.4 C101.9,8.4 101.1,8.4 100.3,8.3 L100.1,8.3 C100,8.4 100,8.4 99.9,8.4 L99.8,8.4 C99.7,8.6 99.5,8.5 99.4,8.5 L98.8,8.5 C98.7,8.5 98.5,8.4 98.4,8.6 L98.3,8.6 L98.2,8.6 C98.1,8.8 97.9,8.7 97.7,8.7 L96.3,8.7 C96.1,8.6 96.1,8.4 96,8.2 C96.1,8.2 96.2,8.1 96.3,8 C96.4,7.9 96.6,7.9 96.7,7.8 C96.9,7.8 96.9,7.7 97.1,7.6 L97.5,7.6 C97.6,7.6 97.7,7.6 97.8,7.5 L98.1,7.5 C98.2,7.5 98.3,7.5 98.3,7.4 C98.5,7.4 98.6,7.3 98.7,7.6 C98.8,7.5 99,7.4 99.1,7.5 C99.2,7.5 99.3,7.5 99.4,7.4 L99.5,7.4 C99.6,7.4 99.7,7.4 99.7,7.3 L99.9,7.3 C100.1,7.3 100.2,7.4 100.4,7.2 L100.5,7.2 L100.8,7.2 C101,7.2 101.2,7.2 101.4,7.1 L101.4,6.7 L101.9,6.2 C101.9,6.2 102,6.1 102.1,6.1 L102.2,6 C102.4,5.8 102.6,5.7 102.7,5.5 L102.7,4.7 L102.5,4.5 C102.4,4.3 102.2,4.3 102.1,4.2 C102,4.2 102,4.1 101.9,4.1 C101.8,4 101.7,3.8 101.6,3.8 L101.5,3.7 C101.4,3.6 101.4,3.5 101.2,3.5 C101.1,3.5 101,3.4 101,3.3 L100.8,3.3 L100.6,3.1 C100.5,3 100.5,2.9 100.4,2.9 C100.3,2.9 100.2,2.8 100.2,2.8 C100.1,2.7 100,2.7 99.9,2.6 L99.7,2.6 C99.7,2.6 99.6,2.6 99.6,2.5 C99.5,2.3 99.3,2.2 99.1,2.1 C99,2 98.8,2 98.8,1.9 L98.7,1.9 L98.3,1.9 C98.2,1.8 98.1,1.7 98.1,1.6 C97.9,1.7 97.8,1.5 97.6,1.4 C97.5,1.3 97.4,1.3 97.3,1.3 L97.1,1.1 L96.9,1.1 C96.6,1 96.6,0.8 96.5,0.6 L96.5,0.3 C96.6,0.2 96.6,0.1 96.6,-2.27373675e-13 C96.6,-0.1 96.7,-0.1 96.7,-0.1 L97,-0.1 C97.1,-0.1 97,0.1 97.2,-2.27373675e-13 C97.2,0.1 97.3,0.1 97.4,0.1 C97.4,0.1 97.4,0.2 97.5,0.2 L97.2,0.2 L97.1,0.3 C97.1,0.3 97.1,0.4 97.2,0.4 L97.2,0.4 C97.2,0.5 97.4,0.5 97.3,0.6 L97.6,0.6 L97.6,0.5 C97.5,0.4 97.5,0.2 97.5,0.1 L97.6,-1.70530257e-13 L98,-1.70530257e-13 L98,0.1 L98.2,0.1 C98.3,0.1 98.2,0.2 98.3,0.2 C98.4,0.2 98.5,0.2 98.5,0.3 L98.8,0.4 C98.9,0.4 98.8,0.6 99,0.5 L99.2,0.5 L99.2,0.6 L99.4,0.6 C99.5,0.6 99.4,0.8 99.5,0.7 C99.6,0.7 99.7,0.8 99.8,0.8 C99.8,0.9 99.8,0.9 99.9,0.9 C100,0.9 100,0.9 100,1 L100.1,1 L100.3,1 C100.3,1.1 100.4,1.1 100.4,1.2 C100.4,1.3 100.5,1.3 100.6,1.3 C100.7,1.3 100.7,1.5 100.8,1.4 L101,1.6 C101.2,1.8 101.3,2 101.5,2.1 C101.6,2.2 101.6,2.3 101.7,2.2 L101.8,2.2 C101.8,2.3 101.8,2.3 101.9,2.3 L102.1,2.3 L102.1,2.4 C102.2,2.5 102.3,2.4 102.3,2.5 C102.3,2.6 102.5,2.5 102.5,2.6 L102.5,2.8 C102.6,2.9 102.7,2.9 102.7,3 C102.7,3 102.7,3.1 102.8,3.1 C102.9,3.1 102.9,3.2 103,3.2 C103.1,3.3 103.2,3.4 103.2,3.5 C103.2,3.5 103.2,3.5 103.3,3.6 C103.3,3.6 103.3,3.6 103.3,3.7 C103.3,3.8 103.3,3.9 103.4,3.9 L103.5,4 L103.5,4.2 L103.5,5 L103.4,5 L103.4,5.2 C103.4,5.3 103.3,5.2 103.3,5.3 C103.3,5.4 103.3,5.5 103.2,5.5 C103.2,5.6 103.1,5.6 103,5.6 C102.9,5.6 102.9,5.7 102.8,5.7 C102.8,5.7 102.8,5.8 102.7,5.8 C102.5,5.8 102.5,5.9 102.4,6 L102.3,6 C102.2,5.9 102.1,6.1 102.1,6.1 C102,6.2 102,6.2 101.9,6.2 C101.8,6.2 101.7,6.3 101.7,6.3 C101.6,6.4 101.5,6.4 101.5,6.4 C101.6,6.5 101.7,6.5 101.9,6.6 L102.4,6.6 C102.5,6.6 102.6,6.6 102.6,6.7 L102.7,6.7 L103.1,6.7 C103.2,6.7 103.3,6.7 103.3,6.8 L103.5,6.8 L104.7,6.8 L104.9,6.8 C105,6.9 105.2,6.9 105.3,7 L105.4,7.1 L105.6,7.1 C105.8,7.3 105.9,7.4 106,7.6 C106.2,7.7 106.2,7.9 106.3,8.1 L106.3,8.2 L106.3,8.6 L106.3,8.7 C106.5,8.9 106.3,9.2 106.4,9.4 C106.2,9.6 106.3,9.8 106.3,10 C106.3,10.1 106.3,10.1 106.2,10.2 C106.1,10.2 106.1,10.3 106.1,10.4 C106.1,10.5 106.1,10.5 106,10.6 L105.9,10.7 C105.9,10.9 105.8,11.1 105.7,11.2 C105.6,11.3 105.7,11.4 105.6,11.5 C105.5,11.6 105.4,11.6 105.4,11.7 L105.4,12.3 L105.9,12.3 L106.1,12.3 C106.2,12.4 106.4,12.4 106.5,12.6 C106.6,12.7 106.6,12.9 106.7,13 C106.7,13.1 106.8,13.1 106.8,13.2 C106.7,13.3 106.5,13.4 106.6,13.5 L106.5,13.6 C106.3,13.6 106.3,13.7 106.2,13.8 C106.1,13.9 106.1,14 105.9,14 C105.9,14 105.8,14 105.8,14.1 C105.7,14.3 105.5,14.3 105.3,14.4 L105.2,14.4 C105,14.3 104.8,14.5 104.7,14.6 C104.6,14.7 104.4,14.6 104.4,14.8 L104,14.8 C103.9,14.9 103.8,15 103.6,15 C103.6,15 103.5,15 103.5,15.1 C103.4,15.2 103.3,15.2 103.2,15.3 C103.1,15.4 103.1,15.5 103,15.6 C103.1,15.7 103.1,15.7 103.2,15.8 C103.3,15.9 103.4,15.8 103.5,15.9 L103.5,16 L103.7,16 C103.8,16 103.9,16 103.9,16.1 L104,16.1 C104.1,16.1 104.1,16.1 104.1,16.2 L104.1,16.2 C104.3,16.3 104.3,16.3 104.5,16.5 C104.6,16.6 104.6,16.7 104.7,16.7 L104.7,16.8 L105,16.8 C105.1,16.8 105.1,16.8 105.1,16.9 L105.2,16.9 L105.4,16.9 C105.5,17.1 105.7,17 105.9,17 L105.9,17.1 C106,17.1 106.1,17.1 106.1,17.2 C106.1,17.2 106.1,17.3 106.2,17.3 L106.3,17.3 C106.3,17.4 106.5,17.4 106.4,17.5 L106.7,17.5 C106.8,17.5 106.9,17.4 106.9,17.6 L107,17.6 L107.3,17.6 C107.3,17.7 107.4,17.7 107.4,17.7 L108,17.7 L108,17.8 L108.4,17.8 L108.4,17.9 C108.8,17.9 108.8,17.9 108.9,18 L109.3,18 C109.4,18 109.5,18 109.5,18.1 L109.8,18.1 L110,17.9 L110,17.3 L110,17 C109.9,16.9 109.9,16.8 109.9,16.7 C109.8,16.6 109.8,16.5 109.8,16.4 C109.8,15.8 109.8,15.2 109.9,14.5 C109.9,14.4 109.9,14.3 109.8,14.2 L109.8,14.1 L109.8,13.4 C109.8,13.3 109.9,13.1 109.7,13 L109.7,12.9 L109.7,12.5 C109.7,12.4 109.7,12.3 109.6,12.2 L109.6,12.1 C109.6,12 109.6,11.9 109.5,11.9 L109.5,11.6 C109.5,11.5 109.5,11.4 109.4,11.4 L109.4,11.2 L109.4,10.9 C109.4,10.8 109.2,10.8 109.3,10.6 C109.1,10.5 109.2,10.3 109.2,10.1 L109.1,10 C109.1,9.9 109.1,9.8 109,9.7 C108.9,9.6 108.9,9.5 108.9,9.4 C108.9,9.3 108.9,9.2 108.8,9.2 L108.8,9.1 L108.8,8.8 C108.9,8.7 109.1,8.6 109.1,8.4 C109.1,8.4 109.2,8.3 109.3,8.3 L109.2,8.2 L109.2,8 L108.8,8 C108.7,7.9 108.6,7.8 108.6,7.8 L108.6,7.4 C108.7,7.3 108.8,7.2 108.9,7.1 C109,6.9 109.2,6.9 109.3,6.8 L109.4,6.8 L110,6.8 C110.1,6.8 110.2,6.8 110.3,6.7 C110.4,6.6 110.5,6.7 110.6,6.7 C110.7,6.8 110.7,6.9 110.8,7 L110.8,7.2 L111.4,7.2 L111.5,7.2 C111.6,7.1 111.7,7.1 111.8,7.1 L112.2,7.1 C112.3,7.1 112.4,7.1 112.4,7 C112.5,6.9 112.6,6.9 112.7,6.9 L113,6.9 L113.1,6.9 C113.2,7 113.3,7 113.4,7 L113.8,7 C113.9,7 114,7 114,6.9 L114.1,6.9 C114.4,6.9 113.9,6.9 114.2,6.9 L114.3,6.9 C114.4,7 114.4,7 114.5,7 L114.6,7 C114.7,7.2 114.8,7.1 115,7.1 L115.1,7.1 C115.2,7.2 115.3,7.2 115.4,7.2 C115.5,7.2 115.7,7.2 115.7,7.3 L115.8,7.3 L116,7.3 C116.1,7.4 116.3,7.4 116.3,7.5 C116.4,7.6 116.5,7.7 116.6,7.8 C116.6,7.9 116.5,8.1 116.7,8.2 L116.7,8.7 C116.7,8.8 116.7,8.9 116.6,8.9 L116.6,9 C116.6,9.1 116.6,9.2 116.5,9.3 L116.5,9.3 C116.5,9.4 116.4,9.6 116.4,9.7 C116.4,9.8 116.2,9.8 116.3,10 C116.3,10.1 116.3,10.2 116.2,10.3 C116.2,10.5 116.1,10.7 116.2,10.9 C116.3,11.1 116.4,11.3 116.5,11.5 C116.5,11.6 116.6,11.7 116.6,11.7 C116.7,11.8 116.8,12 116.9,12 C117.1,12.1 117.3,12.3 117.4,12.5 C117.6,12.7 117.7,12.9 117.9,13.1 C118,13.2 118.1,13.4 118.2,13.3 C118.2,13.3 118.2,13.3 118.3,13.4 C118.4,13.5 118.4,13.6 118.6,13.6 L118.7,13.7 L118.9,13.9 C119,13.8 119.1,14.1 119.2,14 L119.2,14 C119.3,14.1 119.3,14.2 119.5,14.2 C119.6,14.2 119.7,14.3 119.8,14.4 C119.8,14.4 119.9,14.4 120,14.5 L120,14.7 C120.1,14.7 120.1,14.8 120.1,14.8 L120.3,14.9 L120.5,15 C120.5,15.1 120.6,15.1 120.6,15.2 C120.7,15.2 120.7,15.4 120.8,15.3 C120.8,15.3 120.8,15.3 120.8,15.4 C120.8,15.5 120.9,15.6 120.9,15.6 C121,15.7 121,15.7 121,16 L121,16 L121.2,16 C121.3,16.1 121.1,16.2 121.3,16.2 L121.3,16.5 L121.4,16.5 C121.4,16.5 121.4,16.5 121.4,16.6 L121.4,17.3 C121.4,17.4 121.3,17.5 121.5,17.5 L121.5,17.8 L121.4,17.9 L121.4,18.4 C121.4,18.6 121.3,18.6 121.2,18.7 C121.2,18.7 121.1,18.7 121.1,18.8 C121.1,18.9 121.1,19 121,19 L121,19.1 L121,19.2 C120.8,19.3 120.9,19.4 120.9,19.6 C120.8,19.7 120.7,19.7 120.7,19.8 C120.6,20 120.4,20.2 120.2,20.3 C120,20.5 119.8,20.6 119.7,20.8 C119.5,21.1 119.2,21.3 118.9,21.5 C118.8,21.6 118.8,21.7 118.6,21.7 L118.6,21.8 L118.5,21.9 C118.4,21.9 118.3,22 118.2,22.1 C118.1,22.2 118,22.1 117.9,22.3 C117.7,22.3 117.5,22.5 117.3,22.5 C117.2,22.7 117,22.6 116.9,22.6 C116.8,22.6 116.7,22.6 116.7,22.7 C116.6,22.8 116.6,22.8 116.5,22.7 C116.4,22.6 116.4,22.6 116.3,22.6 C116,22.6 116.6,22.6 116.3,22.6 C116.2,22.6 116.2,22.6 116.1,22.5 C116,22.4 115.9,22.4 115.8,22.3 C115.7,22.3 115.6,22.2 115.6,22.1 C115.5,22 115.5,22 115.4,22 L115.3,21.9 C115.2,21.8 115.2,21.7 115,21.7 C114.9,21.7 114.8,21.6 114.8,21.5 C114.8,21.3 114.6,21.3 114.6,21.1 C114.7,20.9 114.5,20.8 114.5,20.7 C114.4,20.6 114.3,20.4 114.2,20.3 L114.4,20.3 C114.5,20.4 114.6,20.5 114.7,20.7 L114.9,20.7 C115,20.8 115.1,21 115.3,21 L115.6,21.3 C115.7,21.4 115.8,21.4 115.9,21.5 C116,21.6 116.1,21.6 116.2,21.6 C116.3,21.6 116.4,21.6 116.4,21.7 C116.4,21.7 116.5,21.7 116.6,21.8 L116.8,21.8 C116.9,21.8 116.4,21.8 116.5,21.9 L116.6,21.9 L117.2,21.9 L117.4,21.9 C117.5,21.8 117.7,21.8 117.8,21.7 C117.8,21.6 117.9,21.6 117.9,21.5 C117.9,21.5 117.9,21.4 118,21.4 C118.2,21.3 118.3,21.1 118.4,21 C118.6,20.9 118.7,20.7 118.8,20.6 C118.9,20.5 118.9,20.5 119,20.5 C119.1,20.4 119.2,20.3 119.3,20.2 C119.3,20.1 119.4,20.1 119.4,20 C119.6,19.8 119.8,19.7 119.9,19.5 L120.1,19.3 C120.1,19.2 120.2,19.2 120.2,19 C120.2,18.9 120.3,18.8 120.4,18.7 C120.5,18.6 120.4,18.5 120.6,18.4 L120.6,18.3 L120.6,18 C120.7,17.9 120.7,17.9 120.7,17.8 L120.7,17.5 C120.8,17.4 120.6,17.3 120.6,17.2 L120.6,16.9 C120.5,16.8 120.5,16.7 120.5,16.6 C120.5,16.5 120.4,16.5 120.4,16.4 C120.3,16.2 120.3,16 120.1,15.9 C119.8,15.8 119.7,15.5 119.5,15.3 L119.4,15.2 C119.3,15.2 119.2,15.1 119.2,15 C119,14.8 119,14.8 118.7,14.6 C118.7,14.6 118.7,14.6 118.6,14.6 C118.5,14.5 118.6,14.3 118.4,14.4 C118.3,14.3 118.3,14.2 118.2,14.2 L118,14.2 C117.8,14 117.6,13.8 117.5,13.6 C117.4,13.5 117.4,13.4 117.3,13.4 C117.2,13.3 117.1,13.3 117,13.3 C117,13.3 116.9,13.3 116.9,13.2 C116.8,13 116.6,12.9 116.5,12.8 C116.5,12.8 116.5,12.7 116.4,12.7 L116.3,12.6 C116.3,12.6 116.2,12.6 116.2,12.5 L116.2,12.3 C116.2,12.3 116.1,12.3 116.1,12.2 C116,12.1 116,12.1 115.9,11.9 C115.8,11.8 115.8,11.6 115.7,11.5 C115.6,11.4 115.6,11.3 115.6,11.2 C115.5,11.1 115.5,11 115.5,10.9 C115.5,10.8 115.5,10.7 115.4,10.7 L115.4,10.6 L115.4,10.2 L115.4,9.8 C115.5,9.7 115.5,9.6 115.6,9.5 L115.6,9.4 C115.6,9.3 115.6,9.2 115.7,9.2 L115.7,9.1 L115.7,8.6 L115.8,8.5 L115.5,8.2 L115.2,8.2 C115.1,8.1 115.1,8.1 115,8.1 L114.6,8.1 C114.5,8.1 114.4,8.1 114.3,8 L114.2,8 L112.9,8 L112.8,8 C112.7,8.1 112.5,8.1 112.4,8.1 C111.6,8.1 110.7,8.1 109.9,8 C109.8,8 109.8,8.1 109.7,8.1 C109.8,8.2 109.9,8.3 110,8.5 L110,9 L110.2,9.2 L110.2,9.6 C110.2,9.7 110.2,9.8 110.3,9.8 L110.3,9.9 L110.3,10.4 C110.5,10.5 110.4,10.7 110.4,10.9 C110.5,11 110.5,11.1 110.6,11.1 C110.6,11.2 110.6,11.4 110.7,11.5 C110.7,11.5 110.7,11.5 110.7,11.6 C110.7,11.8 110.8,12 110.9,12.1 L110.9,12.2 C110.9,12.4 111,12.6 111.1,12.7 L111.1,13 C111.2,13.1 111.3,13.2 111.3,13.3 C111.3,13.4 111.5,13.6 111.4,13.7 L111.6,13.9 C111.6,13.9 111.6,13.9 111.7,14 L111.7,14.3 C111.9,14.3 111.7,14.4 111.8,14.5 C111.8,14.5 111.9,14.5 111.9,14.6 L111.9,14.7 C111.9,14.8 111.8,14.9 112,14.9 L112,15 C112,15.1 112,15.1 112.1,15.1 L112.1,15.2 L112.1,15.4 C112.2,15.4 112.3,15.5 112.2,15.6 C112.2,15.7 112.2,15.7 112.3,15.7 L112.3,16 C112.4,16.1 112.4,16.2 112.5,16.2 L112.5,16.3 C112.5,16.4 112.5,16.4 112.6,16.6 L112.7,16.7 L112.7,16.9 L112.7,17.1 C112.8,17.1 112.8,17.2 112.8,17.3 C112.8,17.4 112.8,17.5 112.9,17.4 C112.9,17.7 112.9,17.7 113,17.8 C113.1,17.9 113.2,18 113.4,18 L113.4,18.4 L113.4,18.8 L113.5,18.8 C113.6,18.8 113.5,18.9 113.5,19 L113.6,19.1 C113.5,19.3 113.7,19.4 113.7,19.5 C113.9,19.6 113.8,19.8 113.8,19.9 C113.7,19.9 113.6,19.9 113.5,19.8 C113.4,19.7 113.3,19.7 113.2,19.7 C113.1,19.6 113.2,19.4 113,19.4 C113,19.2 112.8,19.1 112.9,18.9 L112.5,18.5 L112.1,18.5 L112.1,18.6 L111.7,18.6 C111.6,18.6 111.5,18.5 111.5,18.7 L111.3,18.7 L111.2,18.6 C111.2,18.8 111,18.7 110.9,18.7 L110.9,19.6 L110.9,19.7 C111,19.8 111,20 111,20.1 C111,20.3 110.9,20.4 111.1,20.5 L111.1,20.7 C111.1,21 111,24 111,24.4 C111,24.5 111,24.6 111.1,24.6 C111.2,24.7 111.1,24.7 111.1,24.8 C111.1,25.4 111.1,26.1 111,26.7 C111,26.8 111,26.9 111.1,27 L111.1,27.1 L111.1,28.6 L111.1,28.7 C111,28.8 111,28.9 111,29 L111,30 C111,30.1 111,30.3 110.9,30.4 L110.9,30.6 C112.2,32.3 112.2,32.7 112.1,33.1 L112.1,33.1 Z M103,17.5 L102.8,17.5 L102.7,17.6 C102.6,17.5 102.5,17.7 102.4,17.7 L102.3,17.9 C102.4,18 102.2,18.1 102.2,18.2 C102.1,18.2 102.1,18.3 102,18.3 C101.9,18.3 101.8,18.4 101.7,18.5 C101.7,18.5 101.5,18.5 101.6,18.6 L101.4,18.6 L101.3,18.6 L101.3,18.7 L100.6,18.7 L100.4,18.5 C100.3,18.3 100.5,18.2 100.6,18.1 L101,18.1 C101.1,18 101.2,17.9 101.3,17.8 L101.6,17.5 C101.7,17.4 101.8,17.3 101.9,17.2 C102,17.1 102.1,17.1 102.2,17 C102.3,16.9 102.3,16.9 102.4,16.8 C102.4,16.6 102.4,16.5 102.6,16.4 C102.5,16.4 102.5,16.3 102.5,16.3 C102.3,16.3 102.2,16.5 102,16.6 C101.9,16.7 101.6,16.5 101.5,16.7 L101.4,16.7 L101.2,16.7 C101.1,16.8 101.1,16.8 100.6,16.8 C100.5,16.9 100.5,17 100.4,17 C100.3,17 100.3,17.2 100.2,17.1 L100.2,17.3 L100.2,17.9 C100.2,18 100.2,18 100.1,18 C100.1,18.1 99.9,18.2 99.9,18.3 C99.9,18.3 99.8,18.3 99.8,18.4 L99.8,19.2 L99.7,19.2 L99.7,19.9 L99.7,20 C99.5,20 99.6,20.1 99.6,20.2 L99.6,20.6 C99.4,20.7 99.5,20.9 99.5,21 L99.4,21 L99.4,21.6 L99.3,21.6 C99.3,21.7 99.3,21.9 99.2,21.9 L99.2,22 L99.2,22.9 L99.4,22.9 C99.5,23.1 99.7,23 99.8,23 L99.8,22.9 L100.3,22.9 C100.4,22.8 100.5,22.8 100.5,22.7 C100.7,22.6 100.9,22.8 101.1,22.6 L101.2,22.6 C101.4,22.7 101.5,22.5 101.7,22.5 C101.8,22.4 101.9,22.4 102,22.3 C102.1,22.2 102.2,22.2 102.3,22.1 C102.4,22.2 102.5,22 102.6,22 C102.7,22 102.8,21.9 102.9,21.8 L103,21.7 C103.1,21.7 103.2,21.6 103.3,21.5 C103.4,21.4 103.5,21.2 103.7,21.2 C103.8,21.1 103.9,21.1 104,21 C104.1,20.9 104.2,20.8 104.3,20.8 C104.4,20.7 104.5,20.7 104.5,20.6 C104.5,20.4 104.6,20.4 104.7,20.3 C104.8,20.2 105,20 105.1,19.9 C105.1,19.8 104.9,19.7 105,19.6 C105,19.5 104.9,19.4 105,19.3 C105,19.2 105,19 105.1,18.9 C105.1,18.7 105.2,18.4 105,18.3 L105,18.1 C104.8,18.2 104.6,17.9 104.4,18 C104.2,17.9 104.1,17.8 103.9,17.7 C103.3,17.8 103.2,17.6 103,17.5 L103,17.5 Z M112,15.2 L112,16.1 L112,16.2 C112.2,16.2 112.1,16.3 112.1,16.4 L112.1,17.5 L112.1,17.6 C112.3,17.6 112.2,17.7 112.2,17.8 L112.2,18.6 C112.3,18.7 112.3,18.7 112.3,19 C112.3,19 112.4,19 112.4,19.1 C112.4,19.2 112.4,19.2 112.5,19.2 L113.7,19.2 L113.7,18.7 L113.7,18.6 C113.6,18.5 113.6,18.3 113.4,18.2 L113.3,18.1 C113.4,18 113.2,17.9 113.2,17.8 C113.2,17.7 113.1,17.6 113,17.5 C113,17.4 113,17.4 112.9,17.2 L112.9,17.1 C113,16.9 112.8,16.8 112.8,16.6 C112.7,16.4 112.6,16.3 112.6,16 C112.6,16 112.6,15.9 112.5,15.9 C112.4,15.7 112.3,15.6 112.3,15.3 C112.2,15.4 112.1,15.3 112,15.2 C112.1,15 112,14.9 111.9,14.8 L111.8,14.8 L111.8,15.2 L112,15.2 L112,15.2 Z M105.5,13.4 L105.5,13.6 C105.3,13.7 105.2,13.9 105.1,14.1 C105.3,14.1 105.5,14.2 105.6,14 C105.7,14.1 105.8,13.8 105.9,13.9 C106,13.8 106.1,13.7 106.2,13.7 L106.2,13.7 C106.1,13.5 106,13.4 105.9,13.2 C105.8,13.1 105.7,13.1 105.7,13.2 C105.7,13.3 105.6,13.4 105.5,13.4 L105.5,13.4 Z M101,14.2 L101.2,14.4 C101.3,14.4 101.4,14.3 101.5,14.3 C101.6,14.3 101.6,14.2 101.7,14.2 C101.8,14.2 101.8,14.1 101.9,14.1 C101.9,14.1 101.9,14.1 102,14 C101.8,13.9 101.6,13.9 101.4,13.9 C101.2,14 101.1,14.1 101,14.2 L101,14.2 Z M112.9,7.3 C112.8,7.2 112.7,7.2 112.6,7.3 C112.5,7.3 112.5,7.3 112.4,7.4 C112.3,7.4 112.3,7.5 112.3,7.5 C112.4,7.6 112.4,7.6 112.5,7.6 C112.7,7.6 112.9,7.5 113.1,7.4 C113.1,7.4 113,7.3 112.9,7.3 L112.9,7.3 Z" id="Shape"></path>
                <path d="M26,23 C26.1,23.1 26.1,23.2 26.2,23.2 C26.3,23.3 26.2,23.4 26.3,23.4 L26.3,23.9 L26,24.2 L25.9,24.3 L24.1,24.3 C24,24.3 24,24.3 24,24.4 L23.8,24.4 L23.7,24.4 C23.7,24.6 23.6,24.5 23.5,24.5 L21.7,24.5 L21.7,24.6 L21.1,24.6 C21.1,24.6 21.1,24.7 21,24.7 L20.8,24.7 L18.2,24.7 L18.2,24.8 L17.8,24.8 L17.4,24.8 L17.4,24.9 L13.9,24.9 L13.1,24.9 C13,24.9 13,24.9 13,25 L12.1,25 C12,25 11.9,24.9 11.9,25.1 L11.8,25.1 L9.9,25.1 C9.9,25.1 9.9,25.2 9.8,25.2 L9.7,25.2 C9.7,25.3 9.7,25.4 9.6,25.5 C9.6,25.5 9.6,25.7 9.5,25.7 C9.4,25.7 9.4,25.8 9.4,25.9 C9.4,26 9.3,25.9 9.3,26.1 C9.3,26.3 9.1,26.5 9,26.7 C8.9,26.9 8.7,26.9 8.5,27 C8.4,27 8.3,27.1 8.3,27.1 L7.4,27.1 C7.4,27.1 7.4,27.1 7.3,27 C7.3,27 7.3,27 7.2,27 L7,27 C7,27 7,26.9 6.9,26.9 L6.8,26.8 L6.7,26.8 L6.6,26.7 L6.3,26.7 C6.2,26.7 6.2,26.8 6.1,26.6 C6.1,26.5 5.9,26.5 6,26.4 L6,26.1 C5.8,26 5.8,25.9 5.7,25.8 C5.6,25.7 5.4,25.6 5.2,25.6 L4.8,25.6 L4.7,25.7 L4.1,25.7 C4,25.7 3.9,25.6 3.9,25.8 L3.8,25.8 L3.3,25.8 L3.3,25.9 L2.7,25.9 L2.6,26 L2.1,26 L2,26.1 C2,26.1 2,26 1.9,26 L1.7,26 C1.6,26 1.5,26 1.5,25.9 L1.3,25.9 L1.3,25.2 C1.3,25.1 1.3,25 1.4,25 C1.5,25 1.5,25 1.5,24.9 C1.5,24.8 1.6,24.8 1.7,24.8 L2,24.8 C2.2,24.6 2.5,24.7 2.7,24.7 C2.8,24.7 2.9,24.7 2.9,24.6 L3,24.6 L3.4,24.6 L3.6,24.4 L3.5,24.3 L3.3,24.3 C3.1,24.1 3.1,24.1 2.7,23.9 C2.5,23.8 2.3,23.7 2.2,23.5 L2.2,22.9 C2.3,22.8 2.4,22.7 2.5,22.6 C2.6,22.5 2.7,22.4 2.8,22.4 C2.9,22.4 3,22.3 3.1,22.3 C3.2,22.3 3.3,22.2 3.4,22.1 C3.6,22.1 3.7,22 3.9,21.9 L4,21.8 C4.2,21.8 4.4,21.7 4.5,21.6 L4.6,21.6 C4.7,21.6 4.8,21.6 4.9,21.5 C5,21.4 5.1,21.5 5.1,21.4 L5.2,21.4 C5.4,21.5 5.5,21.3 5.6,21.2 C5.7,21.2 5.8,21.1 5.9,21.1 C6,21.1 6.2,21.2 6.3,21 L6.6,21 C6.7,21 6.8,21 6.8,20.9 L6.9,20.9 C7,20.9 7.1,20.9 7.1,20.8 L7.3,20.8 L8.1,20.8 C8.2,20.7 8.2,20.7 8.3,20.6 C8.3,20.5 8.4,20.3 8.2,20.2 L8.2,20.1 L8.2,19.4 C8.2,19.3 8.2,19.2 8,19.2 C7.9,19.2 7.8,19.2 7.7,19.3 L7.5,19.3 C7.4,19.3 7.3,19.3 7.3,19.4 L7.2,19.4 L6.9,19.4 L6.8,19.4 C6.7,19.6 6.5,19.5 6.3,19.5 C6.2,19.5 6.1,19.5 6,19.6 L5.8,19.6 C5.7,19.6 5.6,19.6 5.6,19.7 L5.5,19.7 C5.4,19.7 5.2,19.7 5.1,19.8 L4.8,19.8 C4.7,19.8 4.6,19.8 4.5,19.9 L4.4,19.9 L4.3,19.9 C4.2,20 4.1,20 3.9,20 C3.8,20 3.7,20 3.6,20.1 L3.5,20.1 L2.9,20.1 C2.8,20.1 2.7,20.1 2.7,20.2 L2.6,20.2 C2.5,20.2 2.4,20.2 2.4,20.3 L2.3,20.3 C2.2,20.3 2,20.3 1.9,20.4 L1.8,20.4 C1.7,20.4 1.6,20.4 1.5,20.5 L1.4,20.5 L0.9,20.5 C0.7,20.5 0.6,20.3 0.5,20.4 C0.5,20.3 0.3,20.2 0.4,20 L0.4,19.6 C0.5,19.5 0.6,19.4 0.6,19.4 C0.7,19.3 0.8,19.4 0.8,19.3 L0.9,19.3 L1.1,19.3 C1.2,19.2 1.4,19.2 1.5,19.1 C1.6,19 1.7,19 1.8,18.9 C1.9,18.8 1.9,18.7 1.9,18.7 C2,18.6 2.2,18.6 2.2,18.5 C2.3,18.6 2.4,18.4 2.5,18.4 L2.6,18.3 C2.7,18.2 2.8,18 3,18 C3,18 3,18 3.1,17.9 C3.2,17.8 3.2,17.7 3.4,17.7 L3.5,17.6 C3.5,17.6 3.6,17.5 3.7,17.5 C3.7,17.5 3.8,17.5 3.8,17.4 C3.9,17.4 3.8,17.2 4,17.2 C4.1,17.2 4.1,17.1 4.2,17 C4.3,16.9 4.5,16.8 4.6,16.8 C4.7,16.8 4.7,16.8 4.8,16.7 C4.9,16.6 5,16.5 5.1,16.4 L5.1,16.1 C5,16.1 4.9,16.1 4.9,15.9 C4.9,15.9 4.9,15.8 4.8,15.8 C4.7,15.7 4.6,15.6 4.5,15.5 C4.5,15.5 4.4,15.4 4.3,15.4 C4.3,15.4 4.2,15.4 4.2,15.3 C4.1,15.2 4.3,14.9 4.1,14.8 L4.1,14.5 L4.1,14.4 C4,14.3 4,14.2 4,14 C4,14 4,13.9 3.9,13.9 C3.9,13.9 3.9,13.9 3.9,13.8 C3.9,13.7 3.9,13.6 3.8,13.6 C3.8,13.6 3.7,13.6 3.7,13.5 L3.7,13.4 C3.7,13.4 3.6,13.4 3.6,13.3 L3.6,13.1 C3.6,13 3.6,13 3.5,13 L3.5,13 L3.5,12.8 L3.4,12.7 C3.4,12.7 3.5,12.6 3.3,12.5 C3.2,12.5 3.3,12.3 3.3,12.3 C3.1,12.2 3.2,12.1 3.2,12 L3.1,12 L3.1,11.7 L3,11.7 L3,11.2 L2.9,11.2 L2.9,11.2 L2.9,10.9 C2.8,10.9 2.8,10.8 2.8,10.7 C2.7,10.6 2.7,10.5 2.7,10.4 L2.7,10.1 L2.7,10 C2.5,9.8 2.6,9.6 2.6,9.4 C2.6,9.3 2.6,9.2 2.5,9.1 L2.5,8.9 C2.5,8.8 2.5,8.7 2.4,8.6 C2.4,8.6 2.3,8.4 2.4,8.4 C2.5,8.3 2.5,8.3 2.5,8.2 L2.5,7.8 C2.5,7.7 2.5,7.7 2.4,7.6 L2.4,6.9 C2.4,6.8 2.4,6.7 2.2,6.7 C2.1,6.7 2,6.7 1.9,6.8 L1.7,6.8 C1.6,6.8 1.6,6.7 1.5,6.7 L1.3,6.7 C1.2,6.6 1.1,6.5 1,6.4 L1,5.9 C1,5.9 1.1,5.8 1.2,5.7 L1.3,5.6 C1.4,5.6 1.5,5.6 1.6,5.5 C1.7,5.5 1.8,5.4 1.9,5.4 L1.9,5.5 L2.2,5.5 C2.2,5.5 2.3,5.4 2.4,5.3 L2.4,4 C2.4,3.9 2.4,3.9 2.3,3.8 C2.2,3.7 2.2,3.6 2.3,3.6 C2.4,3.5 2.4,3.5 2.4,3.4 L2.4,2.7 C2.4,2.6 2.4,2.6 2.5,2.5 L2.5,2.4 C2.5,2.3 2.5,2.3 2.6,2.2 C2.7,2.1 2.7,2 2.6,1.9 C2.5,1.8 2.5,1.8 2.5,1.7 L2.5,1.3 C2.5,1.2 2.6,1.2 2.6,1.1 C2.6,1 2.7,1.1 2.8,1.1 C2.8,1.3 3,1.2 3,1.2 C2.9,1.3 2.9,1.4 2.9,1.5 L2.8,1.6 C2.8,1.7 3,1.6 3,1.7 C3,1.8 3.2,1.7 3.2,1.8 C3.1,1.9 3.1,2.1 3.1,2.3 L3.2,2.3 L3.2,2.7 L3.2,2.8 C3.1,2.9 3.1,3 3.1,3.1 L3.1,3.5 C3.1,3.6 3.1,3.7 3,3.7 L3,3.8 L3,4.9 C3.1,5 3.2,4.9 3.2,5 L3.4,5 C3.5,5 3.6,4.9 3.7,4.8 L3.8,4.8 C3.9,4.8 3.9,4.8 3.9,4.7 C3.9,4.6 4,4.6 4.1,4.6 C4.2,4.6 4.2,4.6 4.3,4.5 L4.4,4.5 C4.5,4.5 4.5,4.5 4.6,4.4 L4.7,4.4 C4.8,4.4 4.9,4.4 4.9,4.3 L5,4.3 L5.2,4.3 L5.3,4.3 C5.4,4.1 5.6,4.2 5.7,4.2 C5.8,4.2 5.8,4.2 5.9,4.1 C5.9,4 6,4.1 6.1,4.1 L7.9,4.1 C8,4.1 8.1,4.1 8.1,4 L8.2,4 L9.4,4 C9.4,4 9.4,4.1 9.5,4.1 L9.7,4.1 L11.8,4.1 L11.8,4.2 L11.9,4.2 L13.1,4.2 C13.2,4.2 13.3,4.2 13.4,4.1 L13.6,4.1 C13.7,4.1 13.8,4.1 13.8,4 L13.9,4 L15.5,4 C15.6,4.1 15.7,4.2 15.8,4.3 L15.9,4.4 L15.9,4.8 C15.8,4.9 15.8,4.9 15.7,5 L15.7,5.6 C15.6,5.7 15.6,5.8 15.6,5.9 L15.5,5.9 L15.5,6.3 L15.4,6.3 C15.4,6.6 15.4,6.6 15.3,6.6 L15.3,6.7 C15.3,6.8 15.3,6.8 15.2,6.9 C15.1,7 15.1,7 15.1,7.2 C15,7.3 15,7.3 14.9,7.3 C14.8,7.3 14.9,7.4 14.9,7.5 C14.9,7.6 14.9,7.7 14.7,7.8 L14.7,7.9 L14.7,8.1 L14.6,8.2 C14.6,8.2 14.5,8.2 14.5,8.3 L14.5,8.4 C14.5,8.5 14.4,8.5 14.4,8.6 C14.3,8.6 14.3,8.6 14.3,8.7 C14.3,8.8 14.3,8.8 14.2,8.8 C14.2,8.8 14.2,8.8 14.2,8.9 C14.2,9 14.2,9 14.1,9 L14.1,9 L14.1,9.2 C14,9.2 14.1,9.3 14,9.3 C13.9,9.3 14,9.4 13.9,9.4 C13.9,9.5 13.7,9.5 13.8,9.7 C13.8,9.7 13.7,9.8 13.7,9.9 L13.6,9.9 C13.6,10.1 13.4,10.1 13.4,10.3 C13.4,10.3 13.3,10.3 13.3,10.4 C13.3,10.5 13.2,10.6 13.2,10.6 C13.2,10.7 13.1,10.7 13,10.8 C13,10.9 12.9,10.9 12.9,11 C12.9,11.1 12.9,11.1 12.8,11.2 C12.7,11.3 12.5,11.5 12.4,11.6 C12.3,11.7 12.3,11.7 12.3,11.8 C12.3,11.8 12.3,11.9 12.2,11.9 L11.9,12.2 L11.9,12.4 L12.1,12.6 L12.1,13 C12.1,13 12,13.1 11.9,13.1 C11.8,13.1 11.7,13.2 11.7,13.2 L11.2,13.2 L11,13.4 C10.8,13.3 10.7,13.5 10.6,13.5 C10.4,13.6 10.4,13.6 10.3,13.6 L10.1,13.8 L9.9,13.8 L9.8,13.8 C9.7,13.9 9.6,13.9 9.5,13.9 L9,13.9 C8.9,14 9.1,14.2 9.1,14.3 C9.1,14.4 9,14.5 9,14.6 L9,15 L11,15 C11,15.2 11.2,15.1 11.3,15.1 L11.3,15.5 C11.3,15.6 11.3,15.7 11.1,15.7 C11,15.7 10.9,15.7 10.8,15.9 C10.7,15.8 10.5,15.7 10.4,15.7 L9.8,15.7 C9.8,15.8 10,15.8 9.9,15.9 C9.9,16 9.9,16 10,16.1 C10,16.2 10,16.4 9.9,16.5 L9.9,16.6 C10.1,16.7 10,16.8 10,17 L10.3,17 L10.4,17 C10.5,16.8 10.7,16.9 10.9,16.9 C10.9,16.9 10.9,16.8 11,16.8 C11.1,16.7 11.1,16.7 11.1,16.9 L11.8,16.9 L11.9,16.9 C12,16.7 12.2,16.8 12.4,16.8 C12.6,16.8 12.6,16.8 12.6,16.6 C12.6,16.5 12.6,16.5 12.7,16.4 L12.5,16.4 C12.3,16.5 12.1,16.3 12,16.2 L11.7,16.1 C11.6,16.1 11.5,16 11.4,15.9 C11.5,15.8 11.5,15.7 11.7,15.7 C11.8,15.7 11.8,15.6 11.8,15.5 L12.7,15.5 C12.8,15.5 12.8,15.6 13,15.7 L13.1,15.7 L13.3,15.7 C13.3,15.7 13.3,15.8 13.4,15.8 C13.4,15.9 13.5,15.9 13.6,15.9 C13.6,15.9 13.7,15.9 13.7,16 C13.8,16.1 13.9,16.2 14,16.2 C14,16.2 14,16.3 14.1,16.3 L14.1,16.3 C14.2,16.3 14.3,16.2 14.4,16.4 L14.6,16.6 C14.6,16.6 14.6,16.7 14.7,16.7 C14.7,16.7 14.7,16.8 14.8,16.8 L14.8,16.9 L14.8,17.4 C14.7,17.5 14.6,17.5 14.5,17.6 C14.4,17.7 14.3,17.7 14.2,17.7 C14.1,17.7 14,17.8 13.9,17.8 C13.8,17.8 13.8,17.7 13.7,17.7 L13.5,17.7 L13.4,17.7 C13.3,17.8 13.2,17.8 13.1,17.8 L12.6,17.8 C12.5,17.8 12.4,17.8 12.3,17.9 L12.2,17.9 L11.8,17.9 C11.7,17.9 11.6,17.9 11.6,18 L11.4,18 L10.5,18 C10.4,18 10.2,18 10.2,18.2 C10.1,18.3 10.1,18.4 10.1,18.5 C10.1,18.6 10.2,18.6 10.2,18.6 L10.2,19.2 L10.3,19.2 L10.3,19.4 L10.6,19.4 C10.7,19.3 10.7,19.3 10.8,19.3 L11.5,19.3 L11.5,19.4 L13.5,19.4 L13.5,19.5 C13.6,19.5 13.8,19.4 13.9,19.6 L14,19.6 L14.2,19.6 C14.4,19.7 14.5,19.8 14.7,19.9 C14.7,20 14.8,20 14.8,20 L14.8,20.5 L14.8,20.5 C14.7,20.5 14.6,20.5 14.6,20.6 C14.6,20.7 14.4,20.6 14.5,20.8 C14.5,20.8 14.5,20.8 14.4,20.8 C14.2,20.7 14.2,20.9 14.1,20.9 C14.1,21 14,21 13.9,21 C13.8,21 13.7,21.1 13.7,21.2 C13.7,21.2 13.7,21.3 13.6,21.3 C13.4,21.3 13.4,21.4 13.3,21.5 C13.2,21.6 13.1,21.7 13.1,21.8 C13.1,21.8 13.1,21.8 13,21.8 L12.8,21.8 L12.6,21.8 C12.6,21.9 12.4,21.9 12.5,22 L11.7,22 L11.5,22 C11.5,22 11.5,22.1 11.4,22.1 C11.4,22.2 11.3,22.2 11.2,22.2 L10.9,22.2 L10.9,22.3 L10.7,22.3 L10.5,22.3 L10.5,22.6 C10.5,22.7 10.5,22.8 10.7,22.8 L10.8,22.8 L13.2,22.8 C13.3,22.8 13.4,22.8 13.4,22.7 C13.4,22.6 13.5,22.7 13.6,22.7 L15.2,22.7 C15.3,22.7 15.4,22.7 15.4,22.6 L15.5,22.6 L15.7,22.6 L19.5,22.6 C19.6,22.6 19.7,22.6 19.8,22.5 L20,22.5 L21.1,22.5 C21.2,22.5 21.2,22.5 21.3,22.4 C21.3,22.3 21.4,22.4 21.5,22.4 L23.1,22.4 C23.2,22.4 23.3,22.4 23.3,22.3 L23.4,22.3 C23.5,22.3 23.6,22.3 23.6,22.2 L23.8,22.2 L24.7,22.2 C24.7,22.1 24.7,22.1 24.6,22.1 C24.5,22 24.4,21.9 24.4,21.8 L24.4,21.5 L25.1,21.5 C25.2,21.7 25.4,21.7 25.5,21.8 L25.7,21.8 C25.8,21.8 25.8,21.8 25.9,21.9 C25.6,23 25.8,23 26,23 L26,23 Z M3.5,7.4 C3.4,7.4 3.3,7.6 3.2,7.6 C3.1,7.6 3.2,7.7 3.1,7.7 L2.9,7.7 L2.9,7.7 L2.8,7.8 L2.8,8.1 L2.8,8.2 C2.9,8.3 2.9,8.4 2.9,8.5 L2.9,9.1 C2.9,9.2 2.9,9.3 3,9.3 C3.1,9.4 3.2,9.6 3.1,9.8 L3.1,10.1 C3.1,10.2 3.1,10.3 3.2,10.4 L3.2,10.5 C3.2,10.6 3.2,10.7 3.3,10.8 L3.3,10.9 L3.3,11 C3.4,11.1 3.4,11.1 3.4,11.2 L3.4,11.3 C3.5,11.4 3.5,11.5 3.5,11.5 C3.5,11.6 3.5,11.7 3.6,11.7 C3.7,11.8 3.7,11.9 3.7,12 L3.7,12.2 C3.7,12.3 3.8,12.3 3.8,12.4 L3.9,12.5 C3.9,12.6 4.1,12.7 4,12.8 C4.1,12.9 4.1,13 4.2,13.1 C4.3,13.2 4.4,13.4 4.3,13.5 C4.4,13.6 4.5,13.7 4.5,13.8 C4.5,13.9 4.7,13.9 4.8,13.9 L5,13.9 C5,13.8 5.1,13.8 5.2,13.7 L5.6,13.7 L5.7,13.6 L6,13.6 L6.1,13.6 C6.1,13.5 6.1,13.5 6.2,13.5 L6.4,13.5 C6.5,13.4 6.5,13.4 6.9,13.4 L6.9,13.3 L7.7,13.3 L7.7,13.2 L8.1,13.2 L8.1,13.1 L8.9,13.1 C9,13.1 9,13 9,13 L9.4,13 L9.9,13 L10,13 L10.1,12.9 C10.1,12.8 10.1,12.7 10.2,12.7 C10.2,12.6 10.4,12.6 10.3,12.5 C10.3,12.5 10.3,12.5 10.3,12.4 C10.4,12.3 10.5,12.1 10.7,12.1 C10.7,12 10.8,12 10.8,12 C10.8,11.9 10.8,11.8 10.9,11.8 C11.1,11.5 11.1,11.5 11.3,11.4 C11.3,11.4 11.3,11.4 11.3,11.3 C11.3,11.2 11.4,11.1 11.4,11.1 C11.5,11 11.5,10.9 11.5,10.9 C11.7,10.7 11.9,10.5 12,10.3 C12,10.2 12.2,10.1 12.2,10.1 C12.3,10 12.4,10 12.3,9.9 C12.4,9.8 12.4,9.6 12.6,9.5 C12.7,9.5 12.7,9.4 12.7,9.3 C12.8,9.1 12.9,9 13,8.8 C13,8.7 13.1,8.7 13.1,8.6 L13.1,8.4 L13.3,8.2 C13.2,8 13.4,7.9 13.4,7.8 C13.5,7.7 13.5,7.5 13.7,7.4 C13.7,7.3 13.7,7.2 13.8,7.1 C13.8,7.1 13.8,7.1 13.8,7 C13.8,6.8 13.9,6.7 14,6.6 C14,6.5 14.1,6.5 14.1,6.4 L14.1,6.1 L14.1,6 C14.2,5.9 14.2,5.8 14.3,5.6 C14.2,5.6 14.2,5.5 14.1,5.5 L13.3,5.5 L13.2,5.5 C13.1,5.6 13,5.6 13,5.6 L11.1,5.6 L10.9,5.6 C10.8,5.6 10.8,5.7 10.8,5.7 C10.7,5.7 10.7,5.6 10.7,5.6 C10.6,5.6 10.4,5.5 10.3,5.7 L10.2,5.7 L9.9,5.7 L9.8,5.7 C9.7,5.6 9.7,5.6 9.6,5.6 L8.1,5.6 C8,5.6 7.9,5.6 7.8,5.5 C7.7,5.4 7.6,5.4 7.5,5.5 C7.4,5.6 7.3,5.6 7.3,5.6 L6.7,5.6 C6.6,5.6 6.5,5.6 6.5,5.7 C6.5,5.8 6.4,5.7 6.3,5.7 C6.2,5.7 6,5.7 6,5.8 C5.9,5.9 5.9,5.9 5.8,6 C5.7,5.8 5.5,5.9 5.5,5.7 C5.4,5.7 5.2,5.7 5.1,5.8 C4.9,5.8 4.9,5.9 4.8,6 L4.6,6 C4.5,6.1 4.4,6.1 4.3,6.1 C4.2,6.1 4.2,6.1 4.1,6.2 C3.9,6.3 3.8,6.4 3.6,6.3 C3.5,6.3 3.4,6.3 3.4,6.4 C3.3,6.5 3.2,6.5 3.1,6.5 C2.9,6.5 2.8,6.6 2.7,6.7 L2.9,6.9 C3.3,7.2 3.4,7.3 3.5,7.4 L3.5,7.4 Z M8.7,23.3 C8.7,23.2 8.7,23 8.6,22.9 L8.6,22.8 L8.6,22.4 C8.6,22.3 8.6,22.1 8.7,22.1 C8.7,22 8.6,22 8.6,21.9 C8.6,21.8 8.5,21.8 8.4,21.8 L7.7,21.8 L7.7,21.9 L7.4,21.9 L7.4,22 L7,22 L6.9,22 C6.9,22.1 6.8,22.1 6.8,22.1 L6.7,22.1 C6.7,22.3 6.6,22.2 6.5,22.2 L6.1,22.2 C6.1,22.4 5.9,22.3 5.9,22.3 C5.9,22.5 5.7,22.4 5.6,22.4 L5.3,22.4 L5.3,22.5 L4.6,22.5 C4.6,22.5 4.6,22.6 4.5,22.6 C4.4,22.6 4.3,22.5 4.3,22.7 C4.3,22.8 4.1,22.7 4.1,22.8 L4.1,22.9 L3.8,22.9 C3.7,23 3.7,23 3.6,23 C3.5,23 3.5,23.2 3.4,23.1 C3.5,23.2 3.6,23.3 3.8,23.3 C3.9,23.3 4,23.4 4,23.5 C4.1,23.6 4.2,23.6 4.3,23.7 C4.4,23.9 4.7,23.9 4.8,24.1 L4.9,24.1 C5.1,24.2 5.3,24.2 5.6,24.2 C5.7,24.1 5.9,24.2 5.9,24.1 C6,24 6.2,24 6.3,24 L6.5,24 C6.6,23.9 6.7,23.9 6.8,23.9 L6.9,23.9 C7,23.8 7,23.8 7.1,23.8 L7.5,23.8 L7.6,23.8 C7.7,23.7 7.9,23.8 7.9,23.6 C8.1,23.6 8.3,23.4 8.5,23.5 L8.7,23.5 C8.6,23.4 8.7,23.4 8.7,23.3 L8.7,23.3 Z M7.4,17.6 L6.4,17.6 L6.2,17.4 C6.1,17.4 5.9,17.4 5.8,17.3 L5.6,17.3 C5.5,17.4 5.4,17.4 5.3,17.4 C5.2,17.4 5.1,17.4 5.1,17.6 L5.1,17.7 C5,17.6 4.9,17.8 4.8,17.8 C4.7,17.8 4.6,17.9 4.5,18 C4.5,18 4.4,18.1 4.4,18 C4.3,17.9 4.2,18.1 4.1,18.1 C4,18.1 3.9,18.2 3.8,18.3 C3.8,18.3 3.8,18.3 3.7,18.3 C3.6,18.3 3.5,18.4 3.5,18.4 C3.4,18.5 3.4,18.5 3.3,18.5 C3.2,18.5 3.2,18.6 3.3,18.7 L3.3,18.8 L3,18.8 L2.7,19.1 C2.6,19.2 2.5,19.2 2.4,19.3 L2.4,19.3 C2.4,19.4 2.5,19.4 2.6,19.5 C2.8,19.5 3,19.6 3.2,19.4 L3.3,19.4 L3.6,19.4 C3.7,19.3 3.7,19.2 3.8,19.2 L4.2,19.2 L4.4,19 L4.6,19 L4.8,18.8 L4.9,18.8 C5.1,18.8 5.3,18.9 5.5,18.7 L5.6,18.7 L5.7,18.7 C5.8,18.6 5.9,18.6 6,18.6 C6.2,18.6 6.4,18.5 6.6,18.4 C6.7,18.4 6.7,18.3 6.8,18.3 C6.9,18.3 7.1,18.3 7.2,18.2 L7.5,18.2 C7.6,18.2 7.6,18 7.8,18.1 C7.9,18.1 7.9,18.1 8,18 C8,17.9 8.1,17.8 8.1,17.7 C8,17.5 8.1,17.3 8,17.1 C7.9,17.1 7.9,17 7.8,16.9 L7.8,17.1 C7.6,17.1 7.6,17.1 7.6,17.2 L7.6,17.3 C7.5,17.4 7.5,17.6 7.4,17.6 L7.4,17.6 Z M11.5,22.6 C11.7,22.4 12,22.1 12.2,21.9 L12.4,21.9 L12.7,21.6 L12.7,21.6 L10.2,21.6 C10.2,21.6 10.2,21.7 10.1,21.7 L10,21.7 C10,21.9 9.8,21.8 9.7,21.8 C9.7,21.9 9.7,22 9.8,22.1 L9.8,22.2 L9.8,22.5 L9.7,22.5 L9.7,22.7 C9.7,22.8 9.7,22.9 9.8,22.9 C9.9,22.9 9.9,23 10.1,23 C10.2,22.9 10.2,22.8 10.4,22.9 L10.5,22.9 C10.7,22.8 10.8,22.7 11,22.7 C11,22.7 11.1,22.7 11.1,22.6 C11.1,22.5 11.2,22.5 11.3,22.5 C11.4,22.6 11.4,22.6 11.5,22.6 L11.5,22.6 Z M7.5,15.3 C7.6,15.3 7.6,15.2 7.7,15.2 C7.8,15.1 7.6,14.9 7.6,14.9 C7.6,14.8 7.7,14.8 7.8,14.7 C7.6,14.7 7.5,14.6 7.5,14.5 L7.4,14.5 L7.3,14.5 C7.3,14.7 7.3,14.7 7.1,14.7 L6.6,14.7 C6.5,14.7 6.4,14.7 6.4,14.8 C6.3,14.9 6.2,14.8 6.2,14.9 L5.9,14.9 L5.7,14.9 C5.6,15 5.4,15.1 5.3,15.2 L5.3,15.6 C5.4,15.6 5.4,15.7 5.5,15.8 L5.5,15.8 L5.9,15.8 C6,15.7 6.1,15.6 6.2,15.4 L6.5,15.4 L6.7,15.2 C7.1,15.3 7.3,15.3 7.5,15.3 L7.5,15.3 L7.5,15.3 Z M6.8,25.7 L7.1,26 C7.2,26.1 7.3,26.1 7.4,26.2 C7.5,26.3 7.6,26.3 7.7,26.4 L8.1,26.4 C8.4,26.2 8.5,25.9 8.6,25.7 L8.3,25.4 C8.2,25.4 8,25.3 8,25.5 L6.9,25.5 L6.8,25.5 C6.8,25.6 6.8,25.6 6.8,25.7 L6.8,25.7 Z M7.5,15.6 L7.5,15.9 C7.4,16.1 7.2,16.2 7.1,16.3 C6.9,16.3 6.8,16.5 6.7,16.6 C7,16.8 7,16.7 7.1,16.8 C7.2,16.8 7.2,16.7 7.3,16.7 C7.4,16.7 7.5,16.6 7.6,16.5 C7.6,16.3 7.8,16.2 7.8,16.1 L7.8,15.8 C7.8,15.6 7.7,15.5 7.5,15.6 L7.5,15.6 Z M11.1,11.4 C11.1,11.3 11.2,11.3 11.2,11.3 C11.2,11.2 11.3,11.2 11.3,11.2 C11.5,11 11.5,11 11.7,10.9 L11.7,10.9 L12,10.6 C12.1,10.6 12.1,10.5 12.1,10.4 C12.1,10.3 12.2,10.2 12.2,10.2 C12.3,10.1 12.3,10.1 12.3,10 C12.3,9.9 12.4,10 12.4,9.9 L12.4,9.7 L12.4,9.7 C12.5,9.6 12.5,9.5 12.4,9.4 C12.3,9.3 12.3,9.3 12.3,9.2 L12.3,8.9 C12.2,8.9 12.1,8.9 12.1,8.8 C12.1,8.7 12.1,8.7 12,8.7 C12,8.7 11.9,8.7 11.9,8.6 C11.8,8.5 11.6,8.4 11.5,8.4 L10,8.4 L9.9,8.4 C9.8,8.5 9.7,8.5 9.6,8.5 C9.5,8.5 9.3,8.4 9.2,8.6 L9.1,8.6 L8.9,8.6 C8.7,8.6 8.6,8.5 8.4,8.7 L8.3,8.7 L8.2,8.7 C8.1,8.8 8,8.8 7.9,8.8 C7.8,8.8 7.7,8.8 7.6,8.9 C7.5,8.9 7.5,9 7.4,9 L7.1,9 C7,9 6.8,9 6.7,9.1 C6.6,9.1 6.6,9.2 6.5,9.2 L6.1,9.2 L6,9.1 L6,9 L6,9 C5.9,9.2 5.8,9.2 5.7,9.2 L4.9,9.2 L4.7,9.2 C4.6,9.3 4.4,9.3 4.3,9.2 L4.2,9.2 C4.1,9.2 3.9,9.1 3.8,9.3 L3.7,9.3 L3.6,9.3 C3.5,9.4 3.4,9.4 3.4,9.4 L3.2,9.6 C3.2,9.7 3.2,9.9 3.3,10 C3.4,10.2 3.4,10.2 3.6,10.3 C3.8,10.4 3.9,10.4 4.1,10.6 C4.2,10.7 4.3,10.7 4.4,10.7 C4.5,10.7 4.5,10.7 4.6,10.6 C4.7,10.6 4.7,10.5 4.7,10.5 C4.7,10.4 4.7,10.4 4.8,10.4 C4.8,10.3 4.9,10.3 5,10.3 L5.1,10.3 C5.1,10.2 5.2,10.2 5.3,10.3 L5.4,10.4 C5.4,10.3 5.4,10.3 5.5,10.3 L5.9,10.3 L5.9,10.2 L6.7,10.2 C6.8,10.2 6.8,10.1 6.8,10.1 L7.2,10.1 L7.3,10.1 C7.3,9.9 7.4,10 7.5,10 L8,10 L8,10 C8,10 8,10 8,9.9 L8.3,9.9 C8.3,9.8 8.3,9.8 8.4,9.8 L9.5,9.8 C9.5,9.7 9.5,9.7 9.6,9.7 C9.7,9.7 9.7,9.7 9.7,9.6 L11.5,9.6 C11.6,9.6 11.6,9.6 11.7,9.7 C11.7,9.8 11.8,9.9 11.8,9.9 C11.7,10 11.8,10.1 11.8,10.2 C11.7,10.3 11.6,10.4 11.5,10.5 L11.4,10.6 C11.4,10.7 11.3,10.8 11.2,10.9 L10.7,11.4 L10.7,11.7 C10.8,11.7 10.8,11.8 10.9,11.8 L10.9,11.7 C10.9,11.4 11,11.4 11.1,11.4 L11.1,11.4 Z" id="Shape"></path>
            </g>
        </g>
    </g>
</svg>